<svg width="181" height="145" viewBox="0 0 181 145" fill="none" xmlns="http://www.w3.org/2000/svg">
<path d="M176.852 105.858C176.344 105.266 175.562 104.985 174.798 105.122L167.011 106.506C166.471 106.603 165.917 106.407 165.552 105.991L163.556 103.708C163.06 103.139 162.44 102.689 161.746 102.388L161.296 102.193C160.936 102.039 160.559 102.358 160.656 102.737L160.778 103.21C160.966 103.939 161.316 104.617 161.805 105.195L163.758 107.514C164.115 107.936 164.221 108.512 164.041 109.027L161.442 116.455C161.187 117.182 161.343 117.996 161.851 118.587C163.054 115.438 165.273 112.343 166.23 111.085C166.361 110.914 166.62 110.909 166.759 111.076L166.386 111.612C166.202 111.87 166.253 112.23 166.503 112.432L167.173 112.979C167.263 113.052 167.376 113.095 167.493 113.098C167.614 113.101 167.731 113.147 167.823 113.226L168.058 113.429L167.88 113.13C167.825 113.037 167.8 112.931 167.808 112.823L167.822 112.642L167.837 112.351L168.252 112.844C168.518 113.16 168.822 113.441 169.158 113.681L170.85 114.889L169.735 116.894C169.497 117.324 169.588 117.864 169.956 118.198L170.514 118.704L172.124 115.795L172.596 116.132C172.674 116.186 172.772 116.103 172.73 116.019L172.469 115.504L175.611 114.381L175.193 113.75C174.921 113.338 174.402 113.163 173.939 113.325L171.758 114.092L170.835 112.261C170.649 111.892 170.417 111.549 170.146 111.238L169.722 110.754L170.012 110.783L170.194 110.798C170.302 110.807 170.405 110.849 170.488 110.918L170.757 111.14L170.594 110.877C170.53 110.774 170.502 110.652 170.518 110.531C170.532 110.417 170.507 110.3 170.449 110.199L170.012 109.455C169.85 109.178 169.501 109.071 169.214 109.21L168.624 109.495C168.481 109.331 168.525 109.079 168.716 108.976C170.115 108.234 173.54 106.542 176.858 105.857L176.852 105.858Z" fill="#FF7424"/>
<path d="M149.634 89.5012C149.843 89.6465 149.896 89.9353 149.752 90.1446C149.607 90.3566 149.318 90.4104 149.106 90.2667C148.257 89.6861 147.373 89.1327 146.479 88.6211C146.258 88.4915 146.179 88.2096 146.306 87.9865C146.433 87.7634 146.717 87.6859 146.94 87.813C147.856 88.3362 148.763 88.9034 149.632 89.4982L149.636 89.5009L149.634 89.5012ZM152.148 91.3775C152.156 91.3837 152.167 91.3908 152.176 91.397C153 92.0678 153.8 92.7764 154.553 93.5034C154.739 93.6818 154.743 93.9759 154.565 94.1614C154.387 94.3469 154.094 94.3524 153.907 94.1732C153.174 93.4638 152.393 92.7728 151.589 92.1196C151.39 91.9581 151.36 91.6652 151.521 91.466C151.676 91.2758 151.949 91.2393 152.148 91.3775ZM144.188 86.3935C144.37 86.5202 144.44 86.7637 144.342 86.9715C144.234 87.2035 143.957 87.3053 143.725 87.1965C142.787 86.7584 141.824 86.3572 140.864 86.0056C140.622 85.9163 140.5 85.6499 140.588 85.4092C140.677 85.1686 140.944 85.0452 141.185 85.1335C142.168 85.4943 143.156 85.9045 144.119 86.3547C144.143 86.3659 144.167 86.3806 144.188 86.3957L144.188 86.3935ZM138.3 84.2375C138.456 84.3464 138.535 84.545 138.483 84.739C138.416 84.987 138.162 85.1348 137.914 85.0678C136.906 84.7981 135.89 84.5755 134.892 84.4088C134.638 84.3661 134.467 84.1262 134.509 83.8738C134.552 83.6202 134.792 83.4494 135.044 83.4911C136.072 83.6636 137.119 83.8907 138.153 84.1691C138.207 84.184 138.255 84.2065 138.298 84.2366L138.3 84.2375ZM33.6239 12.7347C33.6239 12.7347 33.629 12.7382 33.6315 12.74C34.4829 13.356 35.3258 14.0057 36.1401 14.6695C36.3392 14.8309 36.3684 15.1251 36.2057 15.3234C36.0443 15.5225 35.7501 15.5517 35.5518 15.389C34.7506 14.7363 33.9208 14.0975 33.0856 13.4909C32.8772 13.3401 32.8321 13.0498 32.9821 12.8427C33.1312 12.6369 33.4167 12.5903 33.6239 12.7347ZM31.0317 10.966C31.2351 11.1078 31.2917 11.3871 31.158 11.598C31.0185 11.8143 30.7313 11.8768 30.5163 11.7382C29.644 11.1794 28.7472 10.6395 27.8492 10.1365C27.6274 10.0103 27.5456 9.72656 27.6714 9.50262C27.7973 9.27867 28.0814 9.19899 28.3053 9.32484C29.2185 9.83847 30.131 10.3856 31.0186 10.955C31.0237 10.9586 31.0288 10.9621 31.0339 10.9657L31.0317 10.966ZM38.484 16.6996C38.5006 16.7111 38.5184 16.7235 38.5323 16.7388C39.3094 17.4504 40.0743 18.1931 40.8029 18.9445C40.9818 19.1296 40.9775 19.4231 40.7937 19.6029C40.6086 19.7818 40.3163 19.7783 40.1353 19.5936C39.418 18.8558 38.6666 18.1262 37.9038 17.4266C37.7148 17.2533 37.7011 16.9585 37.8743 16.7695C38.0335 16.5953 38.2941 16.571 38.4823 16.7021L38.484 16.6996ZM25.5612 7.89607C25.7455 8.02454 25.8153 8.27142 25.7134 8.47996C25.6011 8.7115 25.3232 8.8068 25.0916 8.69454C24.1578 8.24025 23.2033 7.81304 22.2553 7.4225C22.0175 7.32474 21.9044 7.0533 22.0022 6.81545C22.0999 6.57759 22.3713 6.46454 22.6092 6.5623C23.5751 6.95966 24.548 7.39585 25.4988 7.85823C25.5218 7.86859 25.543 7.88151 25.5621 7.89479L25.5612 7.89607ZM132.117 83.2115C132.245 83.301 132.326 83.4535 132.316 83.6223C132.3 83.879 132.079 84.0731 131.823 84.0566C130.808 83.9918 129.768 83.9772 128.731 84.01C128.474 84.018 128.259 83.8172 128.251 83.5604C128.243 83.3036 128.444 83.0884 128.701 83.0804C129.768 83.0457 130.837 83.0617 131.88 83.1279C131.968 83.1345 132.049 83.1624 132.116 83.2093L132.117 83.2115ZM42.8546 21.2016C42.8864 21.2237 42.9155 21.2497 42.942 21.2794C43.633 22.0821 44.3029 22.9097 44.9336 23.742C45.0893 23.9469 45.0489 24.2379 44.8441 24.3936C44.6392 24.5493 44.3469 24.508 44.1925 24.3041C43.5735 23.4874 42.9163 22.6743 42.2378 21.8861C42.0707 21.6922 42.0927 21.3978 42.2866 21.2307C42.4507 21.0901 42.6855 21.0837 42.8546 21.2016ZM46.641 26.203C46.6881 26.2358 46.7302 26.2784 46.7635 26.3281C47.3484 27.2154 47.9048 28.1245 48.4165 29.0326C48.5422 29.2562 48.4637 29.5395 48.2401 29.6652C48.0166 29.7908 47.7332 29.7123 47.6075 29.4888C47.1057 28.5989 46.5614 27.7077 45.9878 26.8396C45.8461 26.6256 45.9057 26.3366 46.1197 26.1949C46.2832 26.0878 46.4906 26.0964 46.6419 26.2018L46.641 26.203ZM125.854 83.4065C125.959 83.48 126.033 83.5959 126.05 83.732C126.08 83.9872 125.9 84.2186 125.644 84.2498C124.652 84.3691 123.621 84.5344 122.58 84.7403C122.329 84.7897 122.083 84.6265 122.034 84.3749C121.985 84.1232 122.148 83.8781 122.4 83.8287C123.463 83.6176 124.517 83.4494 125.533 83.328C125.65 83.3137 125.764 83.3457 125.854 83.4086L125.854 83.4065ZM49.7206 31.6658C49.7842 31.7101 49.8388 31.7728 49.8734 31.8479C50.3158 32.7795 50.7419 33.7564 51.1388 34.7507C51.2336 34.9886 51.1184 35.2597 50.8796 35.3558C50.6416 35.4506 50.3706 35.3354 50.2745 35.0965C49.8841 34.12 49.4658 33.1617 49.032 32.2475C48.9216 32.0156 49.0201 31.7387 49.252 31.6283C49.4079 31.5537 49.5854 31.5754 49.7176 31.6675L49.7206 31.6658ZM119.697 84.6087C119.785 84.6698 119.851 84.7614 119.881 84.873C119.946 85.1219 119.797 85.3755 119.55 85.4409C118.598 85.6899 117.618 85.9719 116.553 86.3012C116.308 86.3774 116.048 86.24 115.972 85.9943C115.896 85.7485 116.033 85.4891 116.279 85.413C117.356 85.0792 118.35 84.7937 119.316 84.541C119.453 84.5043 119.592 84.5351 119.698 84.6095L119.697 84.6087ZM52.0557 37.4843C52.1345 37.5392 52.1978 37.6192 52.2297 37.717C52.5521 38.6745 52.867 39.6891 53.167 40.733C53.238 40.9808 53.0947 41.2379 52.8478 41.3076C52.6021 41.3782 52.3441 41.2362 52.2731 40.9884C51.978 39.9592 51.6667 38.9585 51.3488 38.0135C51.2674 37.7698 51.3975 37.5073 51.6408 37.4237C51.7867 37.3743 51.9396 37.4015 52.0553 37.4821L52.0557 37.4843ZM53.7945 43.5105C53.8835 43.5725 53.9525 43.6659 53.9794 43.7791C54.2163 44.7319 54.451 45.7341 54.6985 46.8452C54.7544 47.0957 54.5962 47.3444 54.3457 47.4002C54.0953 47.4561 53.8466 47.298 53.7907 47.0475C53.5457 45.9437 53.3134 44.9489 53.0789 44.0034C53.0165 43.7541 53.1696 43.5019 53.418 43.4408C53.5533 43.4067 53.6889 43.437 53.7957 43.5114L53.7945 43.5105ZM113.698 86.4495C113.777 86.5044 113.839 86.5835 113.872 86.68C113.955 86.9233 113.824 87.1872 113.582 87.2694C112.565 87.6169 111.559 87.9714 110.624 88.302C110.382 88.3886 110.116 88.2615 110.03 88.0185C109.944 87.7769 110.071 87.5104 110.314 87.4247C111.252 87.0924 112.261 86.7362 113.282 86.388C113.428 86.3386 113.581 86.3658 113.698 86.4473L113.698 86.4495ZM55.1658 49.6358C55.2599 49.7013 55.3301 49.8012 55.3551 49.9225C55.5116 50.6738 55.665 51.4266 55.818 52.1774L55.9855 52.9967C56.0371 53.248 55.8751 53.494 55.6239 53.5455C55.3726 53.5971 55.1266 53.4351 55.075 53.1838L54.9062 52.3636C54.7532 51.6129 54.5989 50.8613 54.4437 50.1109C54.3922 49.8597 54.5529 49.6128 54.8041 49.5613C54.9341 49.5347 55.0629 49.564 55.1646 49.6349L55.1658 49.6358ZM107.776 88.5326C107.853 88.5866 107.915 88.6636 107.948 88.7601C108.032 89.0021 107.904 89.2678 107.662 89.3522C107.152 89.53 106.642 89.7069 106.133 89.879C105.638 90.0464 105.148 90.2087 104.676 90.3597C104.431 90.438 104.169 90.3033 104.091 90.0579C104.013 89.8125 104.148 89.5514 104.393 89.473C104.859 89.324 105.344 89.1651 105.834 88.9985C106.341 88.8267 106.849 88.6515 107.356 88.4741C107.502 88.4234 107.656 88.4493 107.774 88.5317L107.776 88.5326ZM56.4366 55.7835C56.5294 55.8481 56.5996 55.948 56.6254 56.0681C56.865 57.1907 57.0881 58.1905 57.307 59.1231C57.365 59.3732 57.2103 59.6223 56.9606 59.6825C56.7105 59.7406 56.4613 59.5858 56.4012 59.3361C56.1824 58.3979 55.9572 57.3929 55.7165 56.2638C55.6628 56.013 55.8235 55.7661 56.0744 55.7124C56.2052 55.6845 56.3353 55.7147 56.437 55.7856L56.4366 55.7835ZM101.793 90.4262C101.879 90.4864 101.945 90.5759 101.975 90.6853C102.042 90.9326 101.896 91.1892 101.647 91.2559C100.601 91.5395 99.5674 91.7899 98.5735 92.0019C98.3226 92.0557 98.0757 91.8949 98.022 91.6441C97.9683 91.3932 98.129 91.1463 98.3799 91.0926C99.3578 90.8845 100.374 90.6372 101.403 90.3588C101.541 90.3208 101.681 90.3504 101.791 90.4266L101.793 90.4262ZM57.8796 61.8926C57.9661 61.9528 58.0334 62.0432 58.0634 62.1547C58.1037 62.3056 58.144 62.4564 58.1856 62.6082C58.4174 63.4573 58.671 64.3102 58.938 65.1441C59.0172 65.3882 58.8816 65.6506 58.6384 65.7286C58.393 65.8069 58.1318 65.6721 58.0526 65.428C57.7799 64.5807 57.524 63.7148 57.2886 62.8519C57.2466 62.698 57.205 62.5463 57.1652 62.392C57.0998 62.1443 57.2469 61.8899 57.4955 61.8232C57.6325 61.7865 57.7725 61.816 57.8805 61.8913L57.8796 61.8926ZM95.6561 91.7217C95.7578 91.7925 95.8311 91.9041 95.8503 92.0365C95.8868 92.2904 95.7108 92.5267 95.4569 92.5631C94.3893 92.7182 93.3265 92.8313 92.3015 92.9008C92.0462 92.9175 91.8236 92.7246 91.8057 92.4685C91.7878 92.2123 91.9819 91.9907 92.2381 91.9727C93.2389 91.9052 94.2777 91.7943 95.3215 91.6434C95.4431 91.6262 95.5611 91.6574 95.6539 91.722L95.6561 91.7217ZM59.8018 67.8671C59.8755 67.9185 59.9355 67.9924 59.9693 68.0821C60.3417 69.0574 60.743 70.0265 61.1622 70.9589C61.2674 71.1928 61.162 71.4688 60.9281 71.574C60.6943 71.6792 60.4183 71.5738 60.3131 71.3399C59.8877 70.3919 59.479 69.4063 59.1014 68.4141C59.0096 68.1745 59.1308 67.9058 59.3704 67.814C59.5195 67.7573 59.6797 67.7821 59.8018 67.8671ZM89.4007 92.1278C89.524 92.2138 89.6031 92.3577 89.5998 92.5197C89.5945 92.7767 89.3814 92.9795 89.1244 92.9742C88.0494 92.9503 86.9806 92.8741 85.9515 92.7462C85.6955 92.7152 85.5159 92.4823 85.5473 92.2285C85.5788 91.9746 85.8112 91.7929 86.0651 91.8243C87.0654 91.9473 88.1016 92.0215 89.1466 92.0452C89.2416 92.0472 89.3295 92.0782 89.402 92.1287L89.4007 92.1278ZM62.3752 73.5929C62.4349 73.6345 62.4849 73.6902 62.5205 73.7584C63.0069 74.6866 63.5212 75.5966 64.0522 76.4634C64.1861 76.6833 64.117 76.9694 63.8981 77.102C63.6782 77.2359 63.392 77.1668 63.2594 76.9479C62.7197 76.0636 62.1933 75.1358 61.6982 74.1902C61.5787 73.9633 61.6675 73.6815 61.8934 73.5632C62.0521 73.4792 62.2379 73.4972 62.3752 73.5929ZM65.6523 78.9403C65.6943 78.9695 65.7322 79.0073 65.7644 79.0505C66.374 79.9022 67.0152 80.7249 67.6686 81.4975C67.8339 81.6939 67.8094 81.9866 67.6142 82.1528C67.4178 82.3181 67.1251 82.2936 66.9589 82.0985C66.29 81.3074 65.6342 80.4651 65.0086 79.5929C64.859 79.3847 64.9072 79.0934 65.1153 78.9438C65.2802 78.8264 65.4947 78.8304 65.6523 78.9403ZM83.1869 91.3523C83.3394 91.4586 83.4193 91.6503 83.3733 91.8411C83.3144 92.0909 83.0636 92.2447 82.8137 92.1859C81.7772 91.9414 80.7497 91.6352 79.7572 91.276C79.5156 91.1889 79.39 90.9219 79.4784 90.6813C79.5655 90.4398 79.8324 90.3142 80.0731 90.4025C81.031 90.749 82.0256 91.0455 83.0262 91.2819C83.0844 91.296 83.1377 91.3199 83.1847 91.3527L83.1869 91.3523ZM69.7076 83.7212C69.7293 83.7363 69.75 83.7526 69.7702 83.7724C70.51 84.5051 71.2853 85.2003 72.0705 85.8381C72.2696 85.9995 72.2997 86.2925 72.1382 86.4916C71.9768 86.6907 71.6889 86.7243 71.4847 86.5594C70.675 85.9026 69.8794 85.1876 69.1169 84.4334C68.9345 84.2533 68.932 83.9588 69.1129 83.7751C69.274 83.6117 69.5267 83.5932 69.7085 83.7199L69.7076 83.7212ZM77.301 89.2225C77.4867 89.3519 77.5559 89.6022 77.4506 89.8102C77.3358 90.04 77.0574 90.1331 76.8277 90.0183C75.8856 89.5488 74.9543 89.015 74.0601 88.4335C74.0563 88.4308 74.0512 88.4273 74.0474 88.4246C73.8427 88.282 73.787 88.0014 73.9229 87.7901C74.0637 87.5746 74.3499 87.5135 74.5663 87.6529C75.4312 88.2141 76.3315 88.7301 77.2433 89.1861C77.2642 89.1968 77.2829 89.2079 77.3019 89.2212L77.301 89.2225Z" fill="#FF7424"/>
</svg>
