<svg width="10" height="15" viewBox="0 0 10 15" fill="none" xmlns="http://www.w3.org/2000/svg">
<path d="M9.34012 6.27724L2.15947 0.374638C1.31184 -0.321955 0.0016296 0.261242 0.0115931 1.32933L0.122851 13.2562C0.124866 13.4952 0.198875 13.7286 0.336013 13.9285C0.473152 14.1283 0.667607 14.2861 0.896093 14.383C1.12458 14.4798 1.37741 14.5116 1.62431 14.4746C1.8712 14.4375 2.1017 14.3332 2.2882 14.174L9.35629 8.14983C9.49482 8.03193 9.60539 7.88705 9.68056 7.7249C9.75573 7.56276 9.79376 7.38711 9.79211 7.20975C9.79045 7.03238 9.74915 6.85741 9.67097 6.69658C9.59278 6.53574 9.47953 6.39277 9.33882 6.27725L9.34012 6.27724Z" fill="black"/>
</svg>
