<svg width="181" height="145" viewBox="0 0 181 145" fill="none" xmlns="http://www.w3.org/2000/svg">
<path d="M176.891 105.47C176.383 104.879 175.601 104.597 174.837 104.735L167.051 106.118C166.51 106.215 165.956 106.019 165.591 105.603L163.595 103.32C163.099 102.752 162.48 102.301 161.785 102L161.335 101.806C160.975 101.651 160.598 101.971 160.695 102.349L160.817 102.823C161.005 103.552 161.356 104.229 161.844 104.807L163.797 107.126C164.154 107.548 164.26 108.124 164.08 108.64L161.482 116.067C161.227 116.795 161.383 117.608 161.89 118.2C163.093 115.05 165.313 111.955 166.27 110.697C166.4 110.526 166.659 110.521 166.798 110.688L166.425 111.224C166.241 111.482 166.292 111.842 166.542 112.044L167.212 112.591C167.302 112.665 167.415 112.708 167.532 112.71C167.654 112.713 167.771 112.759 167.862 112.838L168.097 113.041L167.92 112.742C167.864 112.649 167.839 112.543 167.847 112.436L167.861 112.255L167.876 111.964L168.291 112.456C168.557 112.772 168.861 113.053 169.197 113.293L170.89 114.501L169.774 116.507C169.536 116.936 169.627 117.477 169.995 117.811L170.553 118.316L172.164 115.408L172.635 115.744C172.714 115.798 172.811 115.716 172.769 115.631L172.508 115.116L175.651 113.993L175.232 113.362C174.96 112.95 174.441 112.775 173.979 112.937L171.798 113.705L170.874 111.873C170.688 111.504 170.456 111.161 170.185 110.85L169.761 110.366L170.052 110.395L170.233 110.41C170.341 110.42 170.444 110.461 170.527 110.531L170.797 110.752L170.633 110.489C170.569 110.386 170.541 110.265 170.557 110.144C170.571 110.029 170.546 109.912 170.489 109.812L170.051 109.067C169.889 108.791 169.541 108.683 169.253 108.822L168.663 109.107C168.52 108.943 168.564 108.691 168.756 108.589C170.155 107.846 173.579 106.154 176.898 105.469L176.891 105.47Z" fill="#FF7424"/>
<path d="M149.673 89.1134C149.882 89.2587 149.935 89.5474 149.791 89.7568C149.646 89.9688 149.357 90.0226 149.145 89.8789C148.296 89.2982 147.412 88.7448 146.518 88.2333C146.297 88.1037 146.218 87.8217 146.345 87.5987C146.472 87.3756 146.756 87.2981 146.98 87.4252C147.896 87.9483 148.802 88.5155 149.671 89.1104L149.675 89.113L149.673 89.1134ZM152.187 90.9897C152.196 90.9959 152.206 91.003 152.215 91.0092C153.039 91.68 153.839 92.3886 154.592 93.1156C154.778 93.294 154.782 93.5881 154.604 93.7736C154.426 93.9591 154.133 93.9646 153.946 93.7854C153.213 93.076 152.433 92.385 151.628 91.7317C151.429 91.5703 151.399 91.2774 151.56 91.0782C151.715 90.888 151.988 90.8515 152.187 90.9897ZM144.227 86.0057C144.409 86.1324 144.479 86.3759 144.381 86.5836C144.273 86.8157 143.996 86.9175 143.764 86.8086C142.826 86.3706 141.863 85.9694 140.903 85.6178C140.661 85.5285 140.539 85.262 140.627 85.0214C140.716 84.7808 140.983 84.6573 141.224 84.7457C142.208 85.1065 143.195 85.5167 144.158 85.9669C144.182 85.9781 144.206 85.9928 144.227 86.0079L144.227 86.0057ZM138.339 83.8496C138.495 83.9586 138.574 84.1571 138.522 84.3512C138.455 84.5992 138.201 84.747 137.953 84.6799C136.945 84.4103 135.929 84.1877 134.931 84.021C134.677 83.9783 134.507 83.7384 134.548 83.486C134.591 83.2324 134.831 83.0615 135.083 83.1033C136.111 83.2758 137.158 83.5029 138.192 83.7813C138.246 83.7961 138.294 83.8186 138.337 83.8488L138.339 83.8496ZM33.663 12.3469C33.663 12.3469 33.6681 12.3504 33.6706 12.3522C34.522 12.9682 35.3649 13.6179 36.1792 14.2817C36.3783 14.4431 36.4075 14.7373 36.2448 14.9356C36.0833 15.1347 35.7891 15.1639 35.5909 15.0012C34.7897 14.3484 33.9599 13.7097 33.1247 13.1031C32.9163 12.9522 32.8711 12.662 33.0211 12.4549C33.1702 12.249 33.4558 12.2025 33.663 12.3469ZM31.0708 10.5782C31.2742 10.72 31.3308 10.9993 31.197 11.2102C31.0576 11.4265 30.7704 11.4889 30.5553 11.3504C29.683 10.7916 28.7862 10.2517 27.8883 9.74866C27.6665 9.62244 27.5846 9.33875 27.7105 9.1148C27.8363 8.89085 28.1204 8.81118 28.3444 8.93702C29.2576 9.45065 30.1701 9.99778 31.0577 10.5672C31.0628 10.5707 31.0679 10.5743 31.0729 10.5778L31.0708 10.5782ZM38.5231 16.3117C38.5396 16.3233 38.5575 16.3357 38.5713 16.351C39.3485 17.0626 40.1134 17.8053 40.842 18.5567C41.0209 18.7418 41.0166 19.0353 40.8328 19.2151C40.6477 19.394 40.3554 19.3905 40.1744 19.2058C39.4571 18.4679 38.7056 17.7384 37.9428 17.0387C37.7538 16.8655 37.7401 16.5707 37.9134 16.3817C38.0726 16.2074 38.3332 16.1832 38.5213 16.3143L38.5231 16.3117ZM25.6003 7.50825C25.7846 7.63672 25.8543 7.88361 25.7524 8.09214C25.6402 8.32368 25.3622 8.41898 25.1307 8.30673C24.1969 7.85243 23.2424 7.42522 22.2944 7.03469C22.0565 6.93693 21.9435 6.66549 22.0412 6.42763C22.139 6.18977 22.4104 6.07672 22.6483 6.17448C23.6142 6.57184 24.587 7.00803 25.5378 7.47041C25.5608 7.48077 25.5821 7.49369 25.6011 7.50698L25.6003 7.50825ZM132.156 82.8237C132.284 82.9132 132.365 83.0657 132.355 83.2344C132.339 83.4912 132.118 83.6852 131.862 83.6688C130.847 83.604 129.807 83.5894 128.77 83.6222C128.513 83.6302 128.298 83.4293 128.29 83.1725C128.282 82.9157 128.483 82.7006 128.74 82.6926C129.807 82.6579 130.876 82.6739 131.919 82.7401C132.007 82.7467 132.088 82.7746 132.156 82.8215L132.156 82.8237ZM42.8937 20.8137C42.9255 20.8359 42.9546 20.8618 42.9811 20.8916C43.6721 21.6943 44.342 22.5219 44.9727 23.3542C45.1283 23.559 45.0879 23.8501 44.8831 24.0058C44.6783 24.1615 44.386 24.1202 44.2315 23.9163C43.6126 23.0996 42.9553 22.2865 42.2769 21.4983C42.1098 21.3044 42.1318 21.01 42.3257 20.8429C42.4898 20.7022 42.7246 20.6959 42.8937 20.8137ZM46.6801 25.8152C46.7271 25.848 46.7692 25.8906 46.8026 25.9403C47.3874 26.8276 47.9439 27.7366 48.4556 28.6448C48.5812 28.8683 48.5027 29.1517 48.2792 29.2774C48.0556 29.403 47.7722 29.3245 47.6466 29.101C47.1448 28.2111 46.6005 27.3199 46.0269 26.4518C45.8851 26.2378 45.9448 25.9488 46.1588 25.8071C46.3222 25.6999 46.5297 25.7085 46.681 25.814L46.6801 25.8152ZM125.893 83.0186C125.998 83.0922 126.072 83.208 126.089 83.3442C126.119 83.5993 125.939 83.8308 125.683 83.862C124.691 83.9813 123.66 84.1466 122.619 84.3525C122.368 84.4019 122.123 84.2387 122.073 83.987C122.024 83.7354 122.187 83.4903 122.439 83.4409C123.502 83.2298 124.556 83.0615 125.572 82.9402C125.689 82.9259 125.803 82.9579 125.893 83.0208L125.893 83.0186ZM49.7597 31.278C49.8233 31.3223 49.8779 31.385 49.9124 31.46C50.3549 32.3917 50.781 33.3685 51.1779 34.3629C51.2727 34.6008 51.1575 34.8719 50.9186 34.9679C50.6807 35.0628 50.4096 34.9476 50.3136 34.7087C49.9232 33.7322 49.5049 32.7739 49.0711 31.8596C48.9606 31.6278 49.0592 31.3509 49.2911 31.2404C49.4469 31.1658 49.6244 31.1875 49.7566 31.2797L49.7597 31.278ZM119.736 84.2208C119.824 84.282 119.89 84.3736 119.92 84.4851C119.985 84.7341 119.836 84.9877 119.589 85.053C118.637 85.3021 117.657 85.5841 116.592 85.9134C116.347 85.9895 116.087 85.8522 116.011 85.6064C115.935 85.3607 116.072 85.1013 116.318 85.0251C117.395 84.6914 118.389 84.4058 119.355 84.1532C119.492 84.1165 119.631 84.1473 119.738 84.2217L119.736 84.2208ZM52.0947 37.0965C52.1736 37.1514 52.2368 37.2314 52.2688 37.3292C52.5912 38.2867 52.906 39.3013 53.206 40.3452C53.277 40.593 53.1337 40.8501 52.8868 40.9198C52.6412 40.9904 52.3832 40.8484 52.3122 40.6006C52.017 39.5714 51.7058 38.5707 51.3878 37.6257C51.3065 37.382 51.4365 37.1194 51.6799 37.0359C51.8258 36.9865 51.9786 37.0137 52.0943 37.0943L52.0947 37.0965ZM53.8335 43.1227C53.9225 43.1847 53.9915 43.2781 54.0184 43.3913C54.2554 44.3441 54.4901 45.3463 54.7376 46.4574C54.7935 46.7079 54.6353 46.9566 54.3848 47.0124C54.1343 47.0683 53.8857 46.9101 53.8298 46.6597C53.5847 45.5558 53.3525 44.561 53.1179 43.6156C53.0556 43.3663 53.2087 43.1141 53.4571 43.053C53.5924 43.0188 53.728 43.0492 53.8348 43.1236L53.8335 43.1227ZM113.737 86.0617C113.816 86.1166 113.878 86.1957 113.911 86.2922C113.994 86.5355 113.863 86.7994 113.621 86.8816C112.604 87.2291 111.598 87.5836 110.663 87.9142C110.421 88.0008 110.155 87.8736 110.069 87.6307C109.983 87.3891 110.11 87.1226 110.353 87.0369C111.291 86.7046 112.3 86.3484 113.321 86.0002C113.467 85.9508 113.62 85.978 113.737 86.0595L113.737 86.0617ZM55.2049 49.248C55.299 49.3135 55.3692 49.4134 55.3942 49.5347C55.5506 50.2859 55.704 51.0388 55.8571 51.7895L56.0246 52.6089C56.0761 52.8601 55.9142 53.1061 55.6629 53.1577C55.4117 53.2093 55.1656 53.0473 55.1141 52.796L54.9453 51.9758C54.7923 51.2251 54.638 50.4735 54.4828 49.7231C54.4312 49.4719 54.592 49.225 54.8432 49.1734C54.9731 49.1469 55.1019 49.1762 55.2036 49.2471L55.2049 49.248ZM107.815 88.1448C107.892 88.1988 107.954 88.2757 107.987 88.3723C108.071 88.6143 107.943 88.8799 107.701 88.9644C107.191 89.1421 106.681 89.319 106.172 89.4912C105.678 89.6586 105.187 89.8208 104.715 89.9719C104.47 90.0502 104.208 89.9154 104.13 89.6701C104.052 89.4247 104.187 89.1636 104.432 89.0852C104.898 88.9362 105.383 88.7773 105.873 88.6107C106.38 88.4389 106.888 88.2637 107.395 88.0863C107.541 88.0355 107.695 88.0615 107.813 88.1439L107.815 88.1448ZM56.4756 55.3956C56.5684 55.4603 56.6386 55.5602 56.6645 55.6802C56.904 56.8029 57.1271 57.8027 57.3461 58.7353C57.4041 58.9854 57.2494 59.2345 56.9997 59.2947C56.7495 59.3528 56.5004 59.198 56.4402 58.9483C56.2214 58.0101 55.9962 57.0051 55.7556 55.876C55.7018 55.6251 55.8626 55.3783 56.1134 55.3246C56.2443 55.2967 56.3743 55.3269 56.476 55.3978L56.4756 55.3956ZM101.832 90.0384C101.918 90.0986 101.984 90.1881 102.014 90.2975C102.081 90.5448 101.935 90.8014 101.686 90.8681C100.64 91.1517 99.6065 91.4021 98.6125 91.6141C98.3617 91.6678 98.1148 91.5071 98.0611 91.2563C98.0074 91.0054 98.1681 90.7585 98.4189 90.7048C99.3969 90.4967 100.413 90.2494 101.442 89.971C101.58 89.933 101.72 89.9626 101.83 90.0388L101.832 90.0384ZM57.9187 61.5048C58.0052 61.565 58.0725 61.6554 58.1025 61.7669C58.1428 61.9178 58.1831 62.0686 58.2247 62.2204C58.4565 63.0694 58.7101 63.9224 58.9771 64.7563C59.0563 65.0004 58.9206 65.2628 58.6774 65.3407C58.4321 65.4191 58.1709 65.2843 58.0917 65.0402C57.819 64.1929 57.563 63.327 57.3276 62.4641C57.2857 62.3102 57.2441 62.1584 57.2043 62.0042C57.1389 61.7565 57.286 61.502 57.5345 61.4354C57.6716 61.3986 57.8115 61.4282 57.9196 61.5035L57.9187 61.5048ZM95.6951 91.3338C95.7968 91.4047 95.8702 91.5163 95.8894 91.6487C95.9259 91.9026 95.7499 92.1389 95.4959 92.1753C94.4283 92.3304 93.3655 92.4435 92.3405 92.513C92.0853 92.5297 91.8627 92.3368 91.8448 92.0807C91.8268 91.8245 92.021 91.6028 92.2771 91.5849C93.278 91.5174 94.3167 91.4065 95.3606 91.2556C95.4822 91.2383 95.6002 91.2695 95.693 91.3342L95.6951 91.3338ZM59.8409 67.4793C59.9146 67.5307 59.9745 67.6046 60.0084 67.6943C60.3807 68.6696 60.782 69.6387 61.2013 70.5711C61.3065 70.805 61.2011 71.0809 60.9672 71.1862C60.7333 71.2914 60.4574 71.186 60.3521 70.9521C59.9268 70.0041 59.5181 69.0185 59.1405 68.0263C59.0487 67.7867 59.1699 67.5179 59.4095 67.4262C59.5585 67.3695 59.7188 67.3943 59.8409 67.4793ZM89.4398 91.74C89.5631 91.826 89.6422 91.9699 89.6389 92.1319C89.6336 92.3889 89.4205 92.5916 89.1635 92.5863C88.0884 92.5625 87.0196 92.4863 85.9905 92.3584C85.7346 92.3273 85.5549 92.0945 85.5864 91.8407C85.6178 91.5868 85.8503 91.4051 86.1041 91.4365C87.1045 91.5595 88.1407 91.6337 89.1857 91.6574C89.2806 91.6594 89.3686 91.6904 89.441 91.7409L89.4398 91.74ZM62.4142 73.2051C62.474 73.2467 62.524 73.3023 62.5595 73.3706C63.0459 74.2988 63.5602 75.2087 64.0913 76.0756C64.2252 76.2954 64.1561 76.5816 63.9371 76.7142C63.7173 76.8481 63.4311 76.779 63.2985 76.56C62.7587 75.6758 62.2324 74.748 61.7373 73.8024C61.6177 73.5755 61.7065 73.2937 61.9325 73.1754C62.0911 73.0914 62.2769 73.1094 62.4142 73.2051ZM65.6914 78.5524C65.7333 78.5817 65.7712 78.6194 65.8034 78.6627C66.4131 79.5144 67.0543 80.337 67.7077 81.1097C67.873 81.3061 67.8484 81.5988 67.6533 81.765C67.4569 81.9303 67.1642 81.9058 66.998 81.7106C66.3291 80.9196 65.6732 80.0773 65.0477 79.205C64.8981 78.9969 64.9463 78.7056 65.1544 78.556C65.3193 78.4386 65.5337 78.4426 65.6914 78.5524ZM83.2259 90.9645C83.3785 91.0708 83.4584 91.2625 83.4123 91.4532C83.3534 91.7031 83.1026 91.8569 82.8528 91.798C81.8162 91.5535 80.7887 91.2474 79.7962 90.8882C79.5547 90.8011 79.4291 90.5341 79.5174 90.2935C79.6045 90.0519 79.8715 89.9263 80.1121 90.0147C81.0701 90.3612 82.0647 90.6577 83.0653 90.8941C83.1235 90.9082 83.1767 90.9321 83.2238 90.9649L83.2259 90.9645ZM69.7467 83.3334C69.7683 83.3484 69.789 83.3648 69.8093 83.3845C70.549 84.1173 71.3244 84.8125 72.1095 85.4503C72.3087 85.6117 72.3387 85.9046 72.1773 86.1038C72.0158 86.3029 71.728 86.3365 71.5237 86.1715C70.7141 85.5148 69.9185 84.7998 69.156 84.0455C68.9736 83.8655 68.971 83.571 69.1519 83.3873C69.3131 83.2238 69.5658 83.2054 69.7476 83.3321L69.7467 83.3334ZM77.3401 88.8347C77.5257 88.964 77.5949 89.2144 77.4896 89.4224C77.3748 89.6522 77.0965 89.7453 76.8667 89.6305C75.9247 89.161 74.9934 88.6272 74.0992 88.0456C74.0954 88.043 74.0903 88.0394 74.0865 88.0368C73.8818 87.8941 73.8261 87.6136 73.962 87.4023C74.1027 87.1868 74.389 87.1257 74.6053 87.2651C75.4703 87.8263 76.3706 88.3423 77.2824 88.7982C77.3032 88.809 77.3219 88.8201 77.341 88.8334L77.3401 88.8347Z" fill="#FF7424"/>
</svg>
