<svg width="137" height="185" viewBox="0 0 137 185" fill="none" xmlns="http://www.w3.org/2000/svg">
<path d="M70.8099 181.568C70.809 180.222 69.7171 179.132 68.3711 179.133C67.0251 179.134 65.9346 180.226 65.9355 181.572C65.9364 182.918 67.0283 184.008 68.3743 184.007C69.7203 184.006 70.8108 182.914 70.8099 181.568Z" fill="#FF7424"/>
<path d="M70.799 165.25C70.7981 163.904 69.7062 162.814 68.3602 162.815C67.0142 162.816 65.9237 163.908 65.9246 165.254C65.9255 166.6 67.0174 167.69 68.3635 167.689C69.7095 167.688 70.7999 166.596 70.799 165.25Z" fill="#FF7424"/>
<path d="M70.788 148.944C70.7871 147.598 69.6952 146.507 68.3492 146.508C67.0032 146.509 65.9128 147.601 65.9137 148.947C65.9146 150.293 67.0065 151.383 68.3525 151.382C69.6985 151.382 70.7889 150.29 70.788 148.944Z" fill="#FF7424"/>
<path d="M65.9028 132.629C65.9037 133.98 67.0012 135.065 68.3416 135.064C69.682 135.063 70.778 133.966 70.7772 132.626C70.7763 131.285 69.6788 130.189 68.3383 130.19C66.9979 130.191 65.9019 131.288 65.9028 132.629Z" fill="#FF7424"/>
<path d="M65.8919 116.311C65.8928 117.662 66.9903 118.747 68.3307 118.746C69.6712 118.746 70.7672 117.648 70.7663 116.308C70.7654 114.967 69.6679 113.871 68.3275 113.872C66.987 113.873 65.891 114.97 65.8919 116.311Z" fill="#FF7424"/>
<path d="M70.7555 100.001C70.7547 98.6548 69.6628 97.5644 68.3167 97.5653C66.9707 97.5662 65.8803 98.6581 65.8812 100.004C65.8821 101.35 66.974 102.441 68.32 102.44C69.666 102.439 70.7564 101.347 70.7555 100.001Z" fill="#FF7424"/>
<path d="M57.6493 181.577C57.6484 180.231 56.5565 179.141 55.2105 179.142C53.8645 179.143 52.7741 180.234 52.775 181.58C52.7759 182.926 53.8677 184.017 55.2138 184.016C56.5598 184.015 57.6502 182.923 57.6493 181.577Z" fill="#FF7424"/>
<path d="M57.6383 165.259C57.6374 163.913 56.5455 162.823 55.1995 162.824C53.8535 162.825 52.7631 163.917 52.764 165.263C52.7649 166.609 53.8568 167.699 55.2028 167.698C56.5488 167.697 57.6392 166.605 57.6383 165.259Z" fill="#FF7424"/>
<path d="M57.6275 148.952C57.6266 147.606 56.5347 146.516 55.1887 146.517C53.8426 146.518 52.7522 147.61 52.7531 148.956C52.754 150.302 53.8459 151.392 55.1919 151.391C56.5379 151.39 57.6284 150.298 57.6275 148.952Z" fill="#FF7424"/>
<path d="M52.7313 132.638C52.7322 133.989 53.8296 135.074 55.1701 135.073C56.5105 135.072 57.6065 133.975 57.6056 132.634C57.6047 131.294 56.5073 130.198 55.1668 130.199C53.8264 130.2 52.7304 131.297 52.7313 132.638Z" fill="#FF7424"/>
<path d="M52.7203 116.32C52.7212 117.671 53.8187 118.756 55.1591 118.755C56.4995 118.754 57.5955 117.657 57.5946 116.316C57.5937 114.976 56.4963 113.88 55.1559 113.881C53.8154 113.882 52.7194 114.979 52.7203 116.32Z" fill="#FF7424"/>
<path d="M57.5949 100.01C57.594 98.6636 56.5021 97.5732 55.1561 97.5741C53.8101 97.575 52.7196 98.6669 52.7205 100.013C52.7214 101.359 53.8133 102.449 55.1593 102.448C56.5053 102.448 57.5958 101.356 57.5949 100.01Z" fill="#FF7424"/>
<path d="M39.603 181.589C39.6039 182.941 40.7014 184.026 42.0418 184.025C43.3822 184.024 44.4782 182.926 44.4773 181.586C44.4764 180.245 43.379 179.15 42.0385 179.15C40.6981 179.151 39.6021 180.249 39.603 181.589Z" fill="#FF7424"/>
<path d="M39.5921 165.271C39.593 166.623 40.6905 167.708 42.0309 167.707C43.3714 167.706 44.4673 166.608 44.4665 165.268C44.4656 163.928 43.3681 162.832 42.0277 162.832C40.6872 162.833 39.5912 163.931 39.5921 165.271Z" fill="#FF7424"/>
<path d="M39.5813 148.964C39.5822 150.316 40.6796 151.401 42.0201 151.4C43.3605 151.399 44.4565 150.302 44.4556 148.961C44.4547 147.621 43.3573 146.525 42.0168 146.526C40.6764 146.527 39.5804 147.624 39.5813 148.964Z" fill="#FF7424"/>
<path d="M39.5704 132.646C39.5713 133.998 40.6688 135.083 42.0092 135.082C43.3496 135.081 44.4456 133.984 44.4447 132.643C44.4438 131.303 43.3464 130.207 42.006 130.208C40.6655 130.209 39.5695 131.306 39.5704 132.646Z" fill="#FF7424"/>
<path d="M39.5594 116.328C39.5603 117.68 40.6578 118.765 41.9982 118.764C43.3387 118.763 44.4346 117.666 44.4337 116.325C44.4328 114.985 43.3354 113.889 41.995 113.89C40.6545 113.891 39.5585 114.988 39.5594 116.328Z" fill="#FF7424"/>
<path d="M39.5485 100.022C39.5494 101.373 40.6469 102.458 41.9874 102.457C43.3278 102.456 44.4238 101.359 44.4229 100.018C44.422 98.678 43.3245 97.582 41.9841 97.5829C40.6437 97.5838 39.5477 98.6812 39.5485 100.022Z" fill="#FF7424"/>
<path d="M31.3168 181.595C31.3159 180.249 30.224 179.158 28.878 179.159C27.532 179.16 26.4416 180.252 26.4425 181.598C26.4434 182.944 27.5353 184.034 28.8813 184.034C30.2273 184.033 31.3177 182.941 31.3168 181.595Z" fill="#FF7424"/>
<path d="M31.3059 165.277C31.305 163.931 30.2132 162.84 28.8672 162.841C27.5211 162.842 26.4307 163.934 26.4316 165.28C26.4325 166.626 27.5244 167.716 28.8704 167.716C30.2164 167.715 31.3068 166.623 31.3059 165.277Z" fill="#FF7424"/>
<path d="M31.2949 148.97C31.294 147.624 30.2022 146.534 28.8562 146.534C27.5102 146.535 26.4197 147.627 26.4206 148.973C26.4215 150.319 27.5134 151.41 28.8594 151.409C30.2054 151.408 31.2958 150.316 31.2949 148.97Z" fill="#FF7424"/>
<path d="M26.4098 132.655C26.4107 134.007 27.5081 135.092 28.8486 135.091C30.189 135.09 31.285 133.992 31.2841 132.652C31.2832 131.312 30.1857 130.216 28.8453 130.216C27.5049 130.217 26.4089 131.315 26.4098 132.655Z" fill="#FF7424"/>
<path d="M26.3989 116.337C26.3998 117.689 27.4973 118.774 28.8377 118.773C30.1781 118.772 31.2741 117.674 31.2732 116.334C31.2723 114.994 30.1749 113.898 28.8344 113.898C27.494 113.899 26.398 114.997 26.3989 116.337Z" fill="#FF7424"/>
<path d="M31.2624 100.027C31.2615 98.6812 30.1696 97.5908 28.8236 97.5917C27.4776 97.5926 26.3871 98.6845 26.388 100.03C26.3889 101.376 27.4808 102.467 28.8268 102.466C30.1728 102.465 31.2632 101.373 31.2624 100.027Z" fill="#FF7424"/>
<path d="M18.1559 181.604C18.155 180.258 17.0631 179.167 15.7171 179.168C14.3711 179.169 13.2807 180.261 13.2816 181.607C13.2825 182.953 14.3744 184.043 15.7204 184.042C17.0664 184.041 18.1568 182.95 18.1559 181.604Z" fill="#FF7424"/>
<path d="M18.1451 165.286C18.1442 163.94 17.0523 162.849 15.7063 162.85C14.3603 162.851 13.2698 163.943 13.2707 165.289C13.2716 166.635 14.3635 167.725 15.7095 167.724C17.0555 167.723 18.146 166.632 18.1451 165.286Z" fill="#FF7424"/>
<path d="M18.1341 148.979C18.1332 147.633 17.0413 146.542 15.6953 146.543C14.3493 146.544 13.2588 147.636 13.2597 148.982C13.2606 150.328 14.3525 151.418 15.6985 151.418C17.0445 151.417 18.135 150.325 18.1341 148.979Z" fill="#FF7424"/>
<path d="M13.249 132.664C13.2499 134.015 14.3473 135.1 15.6878 135.099C17.0282 135.099 18.1242 134.001 18.1233 132.661C18.1225 131.32 17.025 130.224 15.6845 130.225C14.3441 130.226 13.2481 131.323 13.249 132.664Z" fill="#FF7424"/>
<path d="M13.2381 116.346C13.239 117.698 14.3365 118.782 15.6769 118.782C17.0174 118.781 18.1134 117.683 18.1125 116.343C18.1116 115.002 17.0141 113.906 15.6737 113.907C14.3332 113.908 13.2372 115.006 13.2381 116.346Z" fill="#FF7424"/>
<path d="M18.1015 100.036C18.1006 98.69 17.0087 97.5996 15.6627 97.6005C14.3167 97.6014 13.2262 98.6932 13.2271 100.039C13.228 101.385 14.3199 102.476 15.6659 102.475C17.012 102.474 18.1024 101.382 18.1015 100.036Z" fill="#FF7424"/>
<path d="M0.121055 181.615C0.121957 182.967 1.21939 184.052 2.55983 184.051C3.90027 184.05 4.99628 182.953 4.99538 181.612C4.99449 180.272 3.89702 179.176 2.55658 179.177C1.21613 179.178 0.120161 180.275 0.121055 181.615Z" fill="#FF7424"/>
<path d="M0.110069 165.298C0.11097 166.649 1.2084 167.734 2.54884 167.733C3.88928 167.732 4.98529 166.635 4.9844 165.294C4.9835 163.954 3.88603 162.858 2.54559 162.859C1.20515 162.86 0.109175 163.957 0.110069 165.298Z" fill="#FF7424"/>
<path d="M0.0992046 148.991C0.100106 150.342 1.19753 151.427 2.53798 151.426C3.87842 151.425 4.97443 150.328 4.97353 148.988C4.97264 147.647 3.87517 146.551 2.53473 146.552C1.19428 146.553 0.0983107 147.65 0.0992046 148.991Z" fill="#FF7424"/>
<path d="M0.0883404 132.673C0.0892418 134.024 1.18667 135.109 2.52711 135.108C3.86755 135.107 4.96356 134.01 4.96267 132.669C4.96177 131.329 3.8643 130.233 2.52386 130.234C1.18342 130.235 0.0874464 131.332 0.0883404 132.673Z" fill="#FF7424"/>
<path d="M0.0774761 116.355C0.0783775 117.706 1.17581 118.791 2.51625 118.79C3.85669 118.789 4.9527 117.692 4.9518 116.352C4.95091 115.011 3.85344 113.915 2.513 113.916C1.17256 113.917 0.0765821 115.014 0.0774761 116.355Z" fill="#FF7424"/>
<path d="M0.0666118 100.048C0.0675132 101.399 1.16494 102.484 2.50538 102.483C3.84583 102.483 4.94183 101.385 4.94094 100.045C4.94005 98.7042 3.84258 97.6083 2.50213 97.6092C1.16169 97.61 0.0657179 98.7075 0.0666118 100.048Z" fill="#FF7424"/>
<path d="M136.17 181.525C136.169 180.179 135.077 179.088 133.731 179.089C132.385 179.09 131.295 180.182 131.296 181.528C131.297 182.874 132.389 183.964 133.735 183.964C135.081 183.963 136.171 182.871 136.17 181.525Z" fill="#FF7424"/>
<path d="M136.159 165.207C136.158 163.861 135.066 162.77 133.72 162.771C132.374 162.772 131.284 163.864 131.285 165.21C131.286 166.556 132.378 167.647 133.724 167.646C135.07 167.645 136.16 166.553 136.159 165.207Z" fill="#FF7424"/>
<path d="M136.148 148.9C136.148 147.554 135.056 146.463 133.71 146.464C132.364 146.465 131.273 147.557 131.274 148.903C131.275 150.249 132.367 151.34 133.713 151.339C135.059 151.338 136.149 150.246 136.148 148.9Z" fill="#FF7424"/>
<path d="M131.263 132.585C131.264 133.937 132.362 135.022 133.702 135.021C135.042 135.02 136.138 133.922 136.138 132.582C136.137 131.241 135.039 130.145 133.699 130.146C132.358 130.147 131.262 131.245 131.263 132.585Z" fill="#FF7424"/>
<path d="M131.252 116.267C131.253 117.619 132.351 118.704 133.691 118.703C135.032 118.702 136.128 117.604 136.127 116.264C136.126 114.924 135.028 113.828 133.688 113.829C132.347 113.829 131.251 114.927 131.252 116.267Z" fill="#FF7424"/>
<path d="M136.116 99.9573C136.115 98.6113 135.023 97.5209 133.677 97.5218C132.331 97.5226 131.241 98.6145 131.241 99.9605C131.242 101.307 132.334 102.397 133.68 102.396C135.026 102.395 136.117 101.303 136.116 99.9573Z" fill="#FF7424"/>
<path d="M123.01 181.534C123.009 180.188 121.917 179.097 120.571 179.098C119.225 179.099 118.134 180.191 118.135 181.537C118.136 182.883 119.228 183.973 120.574 183.972C121.92 183.971 123.01 182.88 123.01 181.534Z" fill="#FF7424"/>
<path d="M122.999 165.216C122.998 163.87 121.906 162.779 120.56 162.78C119.214 162.781 118.123 163.873 118.124 165.219C118.125 166.565 119.217 167.655 120.563 167.655C121.909 167.654 123 166.562 122.999 165.216Z" fill="#FF7424"/>
<path d="M122.988 148.909C122.987 147.563 121.895 146.472 120.549 146.473C119.203 146.474 118.112 147.566 118.113 148.912C118.114 150.258 119.206 151.349 120.552 151.348C121.898 151.347 122.989 150.255 122.988 148.909Z" fill="#FF7424"/>
<path d="M118.092 132.594C118.092 133.946 119.19 135.03 120.53 135.03C121.871 135.029 122.967 133.931 122.966 132.591C122.965 131.25 121.868 130.154 120.527 130.155C119.187 130.156 118.091 131.254 118.092 132.594Z" fill="#FF7424"/>
<path d="M118.081 116.276C118.082 117.628 119.179 118.713 120.519 118.712C121.86 118.711 122.956 117.613 122.955 116.273C122.954 114.932 121.857 113.836 120.516 113.837C119.176 113.838 118.08 114.936 118.081 116.276Z" fill="#FF7424"/>
<path d="M122.955 99.9661C122.954 98.6201 121.862 97.5296 120.516 97.5305C119.17 97.5314 118.08 98.6233 118.081 99.9693C118.082 101.315 119.174 102.406 120.52 102.405C121.866 102.404 122.956 101.312 122.955 99.9661Z" fill="#FF7424"/>
<path d="M104.963 181.546C104.964 182.897 106.062 183.982 107.402 183.981C108.743 183.98 109.839 182.883 109.838 181.542C109.837 180.202 108.739 179.106 107.399 179.107C106.058 179.108 104.962 180.205 104.963 181.546Z" fill="#FF7424"/>
<path d="M104.952 165.228C104.953 166.579 106.051 167.664 107.391 167.663C108.732 167.662 109.828 166.565 109.827 165.224C109.826 163.884 108.728 162.788 107.388 162.789C106.047 162.79 104.951 163.887 104.952 165.228Z" fill="#FF7424"/>
<path d="M104.941 148.921C104.942 150.272 106.04 151.357 107.38 151.356C108.721 151.356 109.817 150.258 109.816 148.918C109.815 147.577 108.717 146.481 107.377 146.482C106.037 146.483 104.941 147.58 104.941 148.921Z" fill="#FF7424"/>
<path d="M104.931 132.603C104.932 133.954 106.029 135.039 107.369 135.038C108.71 135.038 109.806 133.94 109.805 132.6C109.804 131.259 108.707 130.163 107.366 130.164C106.026 130.165 104.93 131.262 104.931 132.603Z" fill="#FF7424"/>
<path d="M104.92 116.285C104.921 117.636 106.018 118.721 107.359 118.72C108.699 118.72 109.795 117.622 109.794 116.282C109.793 114.941 108.696 113.845 107.355 113.846C106.015 113.847 104.919 114.944 104.92 116.285Z" fill="#FF7424"/>
<path d="M104.909 99.9781C104.91 101.33 106.007 102.415 107.348 102.414C108.688 102.413 109.784 101.315 109.783 99.9749C109.782 98.6344 108.685 97.5384 107.344 97.5393C106.004 97.5402 104.908 98.6377 104.909 99.9781Z" fill="#FF7424"/>
<path d="M96.677 181.551C96.6761 180.205 95.5843 179.115 94.2383 179.116C92.8922 179.117 91.8018 180.208 91.8027 181.554C91.8036 182.9 92.8955 183.991 94.2415 183.99C95.5875 183.989 96.6779 182.897 96.677 181.551Z" fill="#FF7424"/>
<path d="M96.6662 165.233C96.6653 163.887 95.5734 162.797 94.2274 162.798C92.8814 162.799 91.7909 163.89 91.7918 165.236C91.7927 166.582 92.8846 167.673 94.2306 167.672C95.5766 167.671 96.6671 166.579 96.6662 165.233Z" fill="#FF7424"/>
<path d="M96.6553 148.926C96.6544 147.58 95.5625 146.49 94.2165 146.491C92.8705 146.492 91.7801 147.584 91.781 148.93C91.7819 150.276 92.8738 151.366 94.2198 151.365C95.5658 151.364 96.6562 150.272 96.6553 148.926Z" fill="#FF7424"/>
<path d="M91.77 132.612C91.7709 133.963 92.8683 135.048 94.2088 135.047C95.5492 135.046 96.6452 133.949 96.6443 132.608C96.6434 131.268 95.546 130.172 94.2055 130.173C92.8651 130.174 91.7691 131.271 91.77 132.612Z" fill="#FF7424"/>
<path d="M91.7592 116.294C91.7601 117.645 92.8576 118.73 94.198 118.729C95.5385 118.728 96.6345 117.631 96.6336 116.29C96.6327 114.95 95.5352 113.854 94.1948 113.855C92.8544 113.856 91.7583 114.953 91.7592 116.294Z" fill="#FF7424"/>
<path d="M96.6227 99.9836C96.6218 98.6376 95.5299 97.5472 94.1839 97.5481C92.8379 97.549 91.7475 98.6409 91.7484 99.9869C91.7493 101.333 92.8412 102.423 94.1872 102.422C95.5332 102.422 96.6236 101.33 96.6227 99.9836Z" fill="#FF7424"/>
<path d="M83.5162 181.56C83.5153 180.214 82.4234 179.123 81.0774 179.124C79.7314 179.125 78.6409 180.217 78.6418 181.563C78.6427 182.909 79.7346 184 81.0806 183.999C82.4266 183.998 83.5171 182.906 83.5162 181.56Z" fill="#FF7424"/>
<path d="M83.5054 165.242C83.5045 163.896 82.4126 162.806 81.0666 162.806C79.7206 162.807 78.6302 163.899 78.6311 165.245C78.632 166.591 79.7239 167.682 81.0699 167.681C82.4159 167.68 83.5063 166.588 83.5054 165.242Z" fill="#FF7424"/>
<path d="M83.4944 148.935C83.4935 147.589 82.4016 146.499 81.0556 146.5C79.7096 146.501 78.6192 147.592 78.6201 148.938C78.621 150.284 79.7129 151.375 81.0589 151.374C82.4049 151.373 83.4953 150.281 83.4944 148.935Z" fill="#FF7424"/>
<path d="M78.6092 132.62C78.6101 133.972 79.7076 135.057 81.048 135.056C82.3885 135.055 83.4845 133.958 83.4836 132.617C83.4827 131.277 82.3852 130.181 81.0448 130.182C79.7043 130.182 78.6083 131.28 78.6092 132.62Z" fill="#FF7424"/>
<path d="M78.5984 116.302C78.5993 117.654 79.6967 118.739 81.0372 118.738C82.3776 118.737 83.4736 117.64 83.4727 116.299C83.4718 114.959 82.3743 113.863 81.0339 113.864C79.6935 113.865 78.5975 114.962 78.5984 116.302Z" fill="#FF7424"/>
<path d="M83.4618 99.9923C83.4609 98.6463 82.3691 97.5559 81.023 97.5568C79.677 97.5577 78.5866 98.6495 78.5875 99.9956C78.5884 101.342 79.6803 102.432 81.0263 102.431C82.3723 102.43 83.4627 101.338 83.4618 99.9923Z" fill="#FF7424"/>
<path d="M65.4814 181.572C65.4823 182.923 66.5797 184.008 67.9202 184.007C69.2606 184.007 70.3566 182.909 70.3557 181.569C70.3548 180.228 69.2574 179.132 67.9169 179.133C66.5765 179.134 65.4805 180.231 65.4814 181.572Z" fill="#FF7424"/>
<path d="M65.4704 165.254C65.4713 166.606 66.5688 167.69 67.9092 167.69C69.2496 167.689 70.3456 166.591 70.3447 165.251C70.3439 163.91 69.2464 162.814 67.9059 162.815C66.5655 162.816 65.4695 163.914 65.4704 165.254Z" fill="#FF7424"/>
<path d="M65.4596 148.947C65.4605 150.299 66.5579 151.384 67.8983 151.383C69.2388 151.382 70.3348 150.284 70.3339 148.944C70.333 147.603 69.2355 146.507 67.8951 146.508C66.5546 146.509 65.4587 147.607 65.4596 148.947Z" fill="#FF7424"/>
<path d="M65.4487 132.629C65.4496 133.981 66.547 135.066 67.8875 135.065C69.2279 135.064 70.3239 133.966 70.323 132.626C70.3221 131.285 69.2247 130.189 67.8842 130.19C66.5438 130.191 65.4478 131.289 65.4487 132.629Z" fill="#FF7424"/>
<path d="M65.4378 116.311C65.4387 117.663 66.5362 118.748 67.8766 118.747C69.217 118.746 70.313 117.648 70.3122 116.308C70.3113 114.968 69.2138 113.872 67.8733 113.872C66.5329 113.873 65.4369 114.971 65.4378 116.311Z" fill="#FF7424"/>
<path d="M65.4268 100.004C65.4277 101.356 66.5252 102.441 67.8656 102.44C69.2061 102.439 70.3021 101.342 70.3012 100.001C70.3003 98.6607 69.2028 97.5647 67.8624 97.5656C66.5219 97.5665 65.4259 98.6639 65.4268 100.004Z" fill="#FF7424"/>
<path d="M70.7448 84.0483C70.7439 82.7023 69.652 81.6119 68.306 81.6128C66.96 81.6137 65.8695 82.7056 65.8704 84.0516C65.8713 85.3976 66.9632 86.488 68.3093 86.4871C69.6553 86.4862 70.7457 85.3943 70.7448 84.0483Z" fill="#FF7424"/>
<path d="M70.7339 67.7305C70.733 66.3845 69.6411 65.294 68.2951 65.2949C66.9491 65.2958 65.8587 66.3877 65.8596 67.7337C65.8605 69.0797 66.9524 70.1702 68.2984 70.1693C69.6444 70.1684 70.7348 69.0765 70.7339 67.7305Z" fill="#FF7424"/>
<path d="M70.7231 51.4235C70.7222 50.0775 69.6303 48.987 68.2843 48.9879C66.9383 48.9888 65.8478 50.0807 65.8487 51.4267C65.8496 52.7728 66.9415 53.8632 68.2875 53.8623C69.6335 53.8614 70.724 52.7695 70.7231 51.4235Z" fill="#FF7424"/>
<path d="M65.8377 35.1086C65.8386 36.4601 66.9361 37.545 68.2765 37.5442C69.617 37.5433 70.713 36.4458 70.7121 35.1054C70.7112 33.7649 69.6137 32.6689 68.2733 32.6698C66.9328 32.6707 65.8368 33.7682 65.8377 35.1086Z" fill="#FF7424"/>
<path d="M65.8269 18.7908C65.8278 20.1424 66.9252 21.2273 68.2657 21.2264C69.6061 21.2255 70.7021 20.128 70.7012 18.7876C70.7003 17.4472 69.6029 16.3512 68.2624 16.3521C66.922 16.353 65.826 17.4504 65.8269 18.7908Z" fill="#FF7424"/>
<path d="M70.6905 2.48071C70.6896 1.1347 69.5977 0.044292 68.2517 0.0451897C66.9057 0.0460874 65.8152 1.13795 65.8161 2.48396C65.817 3.82997 66.9089 4.92041 68.2549 4.91952C69.6009 4.91862 70.6914 3.82672 70.6905 2.48071Z" fill="#FF7424"/>
<path d="M57.5842 84.0571C57.5834 82.7111 56.4915 81.6207 55.1454 81.6216C53.7994 81.6225 52.709 82.7144 52.7099 84.0604C52.7108 85.4064 53.8027 86.4968 55.1487 86.4959C56.4947 86.495 57.5851 85.4031 57.5842 84.0571Z" fill="#FF7424"/>
<path d="M57.5733 67.7391C57.5724 66.3931 56.4805 65.3027 55.1345 65.3036C53.7884 65.3045 52.698 66.3964 52.6989 67.7424C52.6998 69.0884 53.7917 70.1788 55.1377 70.1779C56.4837 70.177 57.5742 69.0851 57.5733 67.7391Z" fill="#FF7424"/>
<path d="M57.5624 51.4323C57.5615 50.0863 56.4696 48.9958 55.1236 48.9967C53.7776 48.9976 52.6872 50.0895 52.6881 51.4355C52.689 52.7815 53.7808 53.872 55.1268 53.8711C56.4729 53.8702 57.5633 52.7783 57.5624 51.4323Z" fill="#FF7424"/>
<path d="M52.6662 35.1177C52.6671 36.4692 53.7646 37.5541 55.105 37.5532C56.4455 37.5523 57.5414 36.4549 57.5405 35.1144C57.5397 33.774 56.4422 32.678 55.1018 32.6789C53.7613 32.6798 52.6653 33.7772 52.6662 35.1177Z" fill="#FF7424"/>
<path d="M52.6552 18.7996C52.6561 20.1512 53.7536 21.2361 55.094 21.2352C56.4345 21.2343 57.5305 20.1368 57.5296 18.7964C57.5287 17.4559 56.4312 16.36 55.0908 16.3609C53.7503 16.3618 52.6543 17.4592 52.6552 18.7996Z" fill="#FF7424"/>
<path d="M57.5298 2.4895C57.5289 1.14349 56.437 0.053081 55.091 0.0539788C53.745 0.0548765 52.6546 1.14674 52.6555 2.49275C52.6564 3.83876 53.7482 4.9292 55.0943 4.92831C56.4403 4.92741 57.5307 3.83551 57.5298 2.4895Z" fill="#FF7424"/>
<path d="M39.5379 84.0692C39.5388 85.4207 40.6363 86.5056 41.9767 86.5047C43.3172 86.5038 44.4131 85.4064 44.4123 84.0659C44.4114 82.7255 43.3139 81.6295 41.9735 81.6304C40.633 81.6313 39.537 82.7287 39.5379 84.0692Z" fill="#FF7424"/>
<path d="M39.5271 67.7512C39.528 69.1027 40.6254 70.1876 41.9659 70.1867C43.3063 70.1858 44.4023 69.0884 44.4014 67.7479C44.4005 66.4075 43.3031 65.3115 41.9626 65.3124C40.6222 65.3133 39.5262 66.4107 39.5271 67.7512Z" fill="#FF7424"/>
<path d="M39.5162 51.4443C39.5171 52.7958 40.6146 53.8807 41.955 53.8798C43.2954 53.879 44.3914 52.7815 44.3905 51.4411C44.3896 50.1006 43.2922 49.0046 41.9518 49.0055C40.6113 49.0064 39.5153 50.1039 39.5162 51.4443Z" fill="#FF7424"/>
<path d="M39.5053 35.1265C39.5062 36.478 40.6037 37.5629 41.9441 37.562C43.2846 37.5611 44.3806 36.4636 44.3797 35.1232C44.3788 33.7828 43.2813 32.6868 41.9409 32.6876C40.6004 32.6885 39.5044 33.786 39.5053 35.1265Z" fill="#FF7424"/>
<path d="M39.4943 18.8084C39.4952 20.1599 40.5927 21.2449 41.9332 21.244C43.2736 21.2431 44.3696 20.1456 44.3687 18.8052C44.3678 17.4647 43.2703 16.3688 41.9299 16.3697C40.5895 16.3705 39.4935 17.468 39.4943 18.8084Z" fill="#FF7424"/>
<path d="M39.4835 2.50154C39.4844 3.85306 40.5818 4.93799 41.9223 4.9371C43.2627 4.9362 44.3587 3.83873 44.3578 2.49829C44.3569 1.15785 43.2595 0.0618738 41.919 0.0627678C40.5786 0.0636618 39.4826 1.1611 39.4835 2.50154Z" fill="#FF7424"/>
<path d="M31.2517 84.0746C31.2508 82.7286 30.159 81.6382 28.813 81.6391C27.4669 81.64 26.3765 82.7318 26.3774 84.0778C26.3783 85.4238 27.4702 86.5143 28.8162 86.5134C30.1622 86.5125 31.2526 85.4206 31.2517 84.0746Z" fill="#FF7424"/>
<path d="M31.2409 67.7567C31.24 66.4107 30.1481 65.3203 28.8021 65.3212C27.4561 65.3221 26.3656 66.414 26.3665 67.76C26.3674 69.106 27.4593 70.1964 28.8053 70.1955C30.1514 70.1946 31.2418 69.1027 31.2409 67.7567Z" fill="#FF7424"/>
<path d="M31.23 51.4499C31.2291 50.1039 30.1372 49.0134 28.7912 49.0143C27.4452 49.0152 26.3548 50.1071 26.3557 51.4531C26.3566 52.7991 27.4485 53.8895 28.7945 53.8886C30.1405 53.8877 31.2309 52.7959 31.23 51.4499Z" fill="#FF7424"/>
<path d="M26.3447 35.1351C26.3456 36.4866 27.4431 37.5715 28.7835 37.5706C30.1239 37.5697 31.2199 36.4723 31.219 35.1319C31.2181 33.7914 30.1207 32.6954 28.7802 32.6963C27.4398 32.6972 26.3438 33.7947 26.3447 35.1351Z" fill="#FF7424"/>
<path d="M26.3338 18.8172C26.3347 20.1687 27.4322 21.2537 28.7726 21.2528C30.1131 21.2519 31.209 20.1544 31.2082 18.814C31.2073 17.4735 30.1098 16.3775 28.7694 16.3784C27.4289 16.3793 26.3329 17.4768 26.3338 18.8172Z" fill="#FF7424"/>
<path d="M31.1973 2.50708C31.1964 1.16107 30.1045 0.0706592 28.7585 0.0715569C27.4125 0.0724546 26.3221 1.16432 26.323 2.51033C26.3239 3.85634 27.4158 4.94678 28.7618 4.94588C30.1078 4.94499 31.1982 3.85309 31.1973 2.50708Z" fill="#FF7424"/>
<path d="M18.0909 84.0834C18.09 82.7374 16.9981 81.647 15.6521 81.6479C14.3061 81.6487 13.2156 82.7406 13.2165 84.0866C13.2174 85.4326 14.3093 86.5231 15.6553 86.5222C17.0013 86.5213 18.0918 85.4294 18.0909 84.0834Z" fill="#FF7424"/>
<path d="M18.08 67.7655C18.0791 66.4195 16.9872 65.3291 15.6412 65.33C14.2952 65.3309 13.2048 66.4227 13.2056 67.7688C13.2065 69.1148 14.2984 70.2052 15.6445 70.2043C16.9905 70.2034 18.0809 69.1115 18.08 67.7655Z" fill="#FF7424"/>
<path d="M18.069 51.4587C18.0681 50.1126 16.9762 49.0222 15.6302 49.0231C14.2842 49.024 13.1938 50.1159 13.1947 51.4619C13.1956 52.8079 14.2875 53.8983 15.6335 53.8974C16.9795 53.8965 18.0699 52.8047 18.069 51.4587Z" fill="#FF7424"/>
<path d="M13.1839 35.1439C13.1848 36.4954 14.2823 37.5803 15.6227 37.5794C16.9632 37.5785 18.0592 36.4811 18.0583 35.1407C18.0574 33.8002 16.9599 32.7042 15.6195 32.7051C14.279 32.706 13.183 33.8035 13.1839 35.1439Z" fill="#FF7424"/>
<path d="M13.1731 18.826C13.174 20.1775 14.2714 21.2625 15.6119 21.2616C16.9523 21.2607 18.0483 20.1632 18.0474 18.8228C18.0465 17.4823 16.9491 16.3863 15.6086 16.3872C14.2682 16.3881 13.1722 17.4856 13.1731 18.826Z" fill="#FF7424"/>
<path d="M18.0364 2.51575C18.0355 1.16974 16.9436 0.0793261 15.5976 0.0802239C14.2516 0.0811216 13.1612 1.17299 13.1621 2.519C13.163 3.86501 14.2549 4.95545 15.6009 4.95455C16.9469 4.95365 18.0373 3.86176 18.0364 2.51575Z" fill="#FF7424"/>
<path d="M0.0559917 84.0954C0.0568931 85.4469 1.15432 86.5319 2.49476 86.531C3.83521 86.5301 4.93121 85.4326 4.93032 84.0922C4.92943 82.7517 3.83195 81.6557 2.49151 81.6566C1.15107 81.6575 0.0550977 82.755 0.0559917 84.0954Z" fill="#FF7424"/>
<path d="M0.0450054 67.7775C0.0459068 69.1291 1.14334 70.214 2.48378 70.2131C3.82422 70.2122 4.92023 69.1147 4.91933 67.7743C4.91844 66.4338 3.82097 65.3379 2.48053 65.3388C1.14008 65.3397 0.0441114 66.4371 0.0450054 67.7775Z" fill="#FF7424"/>
<path d="M0.0341412 51.4706C0.0350426 52.8221 1.13247 53.907 2.47291 53.9061C3.81336 53.9052 4.90936 52.8078 4.90847 51.4673C4.90757 50.1269 3.8101 49.0309 2.46966 49.0318C1.12922 49.0327 0.0332472 50.1301 0.0341412 51.4706Z" fill="#FF7424"/>
<path d="M0.0232769 35.1527C0.0241783 36.5042 1.12161 37.5891 2.46205 37.5882C3.80249 37.5873 4.8985 36.4899 4.8976 35.1494C4.89671 33.809 3.79924 32.713 2.4588 32.7139C1.11836 32.7148 0.0223829 33.8123 0.0232769 35.1527Z" fill="#FF7424"/>
<path d="M0.0124126 18.8347C0.013314 20.1862 1.11074 21.2711 2.45118 21.2702C3.79163 21.2693 4.88763 20.1719 4.88674 18.8314C4.88585 17.491 3.78838 16.395 2.44793 16.3959C1.10749 16.3968 0.0115186 17.4942 0.0124126 18.8347Z" fill="#FF7424"/>
<path d="M0.00154837 2.52779C0.00244976 3.87931 1.09988 4.96423 2.44032 4.96334C3.78076 4.96245 4.87677 3.86498 4.87588 2.52453C4.87498 1.18409 3.77751 0.0881189 2.43707 0.0890129C1.09663 0.0899069 0.000654378 1.18734 0.00154837 2.52779Z" fill="#FF7424"/>
<path d="M136.105 84.0048C136.104 82.6587 135.012 81.5683 133.666 81.5692C132.32 81.5701 131.23 82.662 131.231 84.008C131.232 85.354 132.323 86.4445 133.669 86.4436C135.015 86.4427 136.106 85.3508 136.105 84.0048Z" fill="#FF7424"/>
<path d="M136.094 67.6869C136.093 66.3409 135.001 65.2505 133.655 65.2514C132.309 65.2523 131.219 66.3441 131.22 67.6901C131.221 69.0361 132.313 70.1266 133.659 70.1257C135.005 70.1248 136.095 69.0329 136.094 67.6869Z" fill="#FF7424"/>
<path d="M136.083 51.3799C136.083 50.0339 134.991 48.9435 133.645 48.9444C132.299 48.9453 131.208 50.0372 131.209 51.3832C131.21 52.7292 132.302 53.8196 133.648 53.8187C134.994 53.8178 136.084 52.7259 136.083 51.3799Z" fill="#FF7424"/>
<path d="M131.198 35.0651C131.199 36.4166 132.296 37.5015 133.637 37.5006C134.977 37.4997 136.073 36.4022 136.072 35.0618C136.072 33.7214 134.974 32.6254 133.634 32.6262C132.293 32.6271 131.197 33.7246 131.198 35.0651Z" fill="#FF7424"/>
<path d="M131.187 18.7473C131.188 20.0988 132.286 21.1837 133.626 21.1828C134.966 21.1819 136.062 20.0845 136.062 18.744C136.061 17.4036 134.963 16.3076 133.623 16.3085C132.282 16.3094 131.186 17.4068 131.187 18.7473Z" fill="#FF7424"/>
<path d="M136.051 2.43713C136.05 1.09112 134.958 0.000712861 133.612 0.00161057C132.266 0.00250828 131.175 1.09437 131.176 2.44038C131.177 3.78639 132.269 4.87684 133.615 4.87594C134.961 4.87504 136.052 3.78314 136.051 2.43713Z" fill="#FF7424"/>
<path d="M122.944 84.0135C122.944 82.6675 121.852 81.5771 120.506 81.578C119.16 81.5789 118.069 82.6708 118.07 84.0168C118.071 85.3628 119.163 86.4533 120.509 86.4524C121.855 86.4515 122.945 85.3596 122.944 84.0135Z" fill="#FF7424"/>
<path d="M122.934 67.6956C122.933 66.3495 121.841 65.2591 120.495 65.26C119.149 65.2609 118.058 66.3528 118.059 67.6988C118.06 69.0448 119.152 70.1353 120.498 70.1344C121.844 70.1335 122.935 69.0416 122.934 67.6956Z" fill="#FF7424"/>
<path d="M122.923 51.3887C122.922 50.0427 121.83 48.9523 120.484 48.9531C119.138 48.954 118.047 50.0459 118.048 51.392C118.049 52.738 119.141 53.8284 120.487 53.8275C121.833 53.8266 122.924 52.7347 122.923 51.3887Z" fill="#FF7424"/>
<path d="M118.026 35.0741C118.027 36.4256 119.125 37.5105 120.465 37.5096C121.806 37.5087 122.902 36.4113 122.901 35.0708C122.9 33.7304 121.802 32.6344 120.462 32.6353C119.122 32.6362 118.026 33.7336 118.026 35.0741Z" fill="#FF7424"/>
<path d="M118.016 18.7561C118.016 20.1076 119.114 21.1925 120.454 21.1916C121.795 21.1907 122.891 20.0932 122.89 18.7528C122.889 17.4124 121.792 16.3164 120.451 16.3173C119.111 16.3182 118.015 17.4156 118.016 18.7561Z" fill="#FF7424"/>
<path d="M122.89 2.44592C122.889 1.09991 121.797 0.00950195 120.451 0.0103997C119.105 0.0112974 118.015 1.10316 118.016 2.44917C118.017 3.79518 119.108 4.88562 120.454 4.88473C121.8 4.88383 122.891 3.79193 122.89 2.44592Z" fill="#FF7424"/>
<path d="M104.898 84.0256C104.899 85.3771 105.997 86.462 107.337 86.4611C108.678 86.4602 109.773 85.3628 109.773 84.0223C109.772 82.6819 108.674 81.5859 107.334 81.5868C105.993 81.5877 104.897 82.6851 104.898 84.0256Z" fill="#FF7424"/>
<path d="M104.887 67.7076C104.888 69.0591 105.986 70.144 107.326 70.1431C108.667 70.1423 109.763 69.0448 109.762 67.7043C109.761 66.3639 108.663 65.2679 107.323 65.2688C105.982 65.2697 104.886 66.3672 104.887 67.7076Z" fill="#FF7424"/>
<path d="M104.876 51.4007C104.877 52.7523 105.975 53.8372 107.315 53.8363C108.656 53.8354 109.752 52.7379 109.751 51.3975C109.75 50.0571 108.652 48.961 107.312 48.9619C105.972 48.9628 104.876 50.0603 104.876 51.4007Z" fill="#FF7424"/>
<path d="M104.866 35.0828C104.866 36.4343 105.964 37.5192 107.304 37.5183C108.645 37.5174 109.741 36.4199 109.74 35.0795C109.739 33.7391 108.642 32.6431 107.301 32.6439C105.961 32.6448 104.865 33.7423 104.866 35.0828Z" fill="#FF7424"/>
<path d="M104.855 18.7648C104.856 20.1164 105.953 21.2013 107.294 21.2004C108.634 21.1995 109.73 20.102 109.729 18.7616C109.728 17.4212 108.631 16.3252 107.29 16.3261C105.95 16.327 104.854 17.4244 104.855 18.7648Z" fill="#FF7424"/>
<path d="M104.844 2.45796C104.845 3.80948 105.942 4.89441 107.283 4.89352C108.623 4.89262 109.719 3.79515 109.718 2.45471C109.717 1.11427 108.62 0.0182947 107.279 0.0191887C105.939 0.0200827 104.843 1.11752 104.844 2.45796Z" fill="#FF7424"/>
<path d="M96.612 84.031C96.6111 82.685 95.5192 81.5946 94.1732 81.5955C92.8272 81.5964 91.7367 82.6882 91.7376 84.0343C91.7385 85.3803 92.8304 86.4707 94.1764 86.4698C95.5224 86.4689 96.6129 85.377 96.612 84.031Z" fill="#FF7424"/>
<path d="M96.6011 67.7131C96.6002 66.3671 95.5083 65.2767 94.1623 65.2776C92.8163 65.2785 91.7259 66.3704 91.7268 67.7164C91.7277 69.0624 92.8196 70.1528 94.1656 70.1519C95.5116 70.151 96.602 69.0591 96.6011 67.7131Z" fill="#FF7424"/>
<path d="M96.5902 51.4063C96.5893 50.0603 95.4975 48.9698 94.1515 48.9707C92.8054 48.9716 91.715 50.0635 91.7159 51.4095C91.7168 52.7555 92.8087 53.846 94.1547 53.8451C95.5007 53.8442 96.5911 52.7523 96.5902 51.4063Z" fill="#FF7424"/>
<path d="M91.7049 35.0915C91.7058 36.4431 92.8033 37.528 94.1437 37.5271C95.4842 37.5262 96.5801 36.4287 96.5792 35.0883C96.5784 33.7478 95.4809 32.6518 94.1405 32.6527C92.8 32.6536 91.704 33.7511 91.7049 35.0915Z" fill="#FF7424"/>
<path d="M91.6942 18.7736C91.6951 20.1252 92.7925 21.2101 94.133 21.2092C95.4734 21.2083 96.5694 20.1108 96.5685 18.7704C96.5676 17.4299 95.4702 16.334 94.1297 16.3349C92.7893 16.3358 91.6933 17.4332 91.6942 18.7736Z" fill="#FF7424"/>
<path d="M96.5576 2.46338C96.5567 1.11737 95.4649 0.026958 94.1189 0.0278557C92.7729 0.0287534 91.6824 1.12062 91.6833 2.46663C91.6842 3.81264 92.7761 4.90308 94.1221 4.90218C95.4681 4.90129 96.5585 3.80939 96.5576 2.46338Z" fill="#FF7424"/>
<path d="M83.4511 84.0398C83.4502 82.6938 82.3583 81.6034 81.0123 81.6043C79.6663 81.6052 78.5758 82.697 78.5767 84.043C78.5776 85.3891 79.6695 86.4795 81.0155 86.4786C82.3616 86.4777 83.452 85.3858 83.4511 84.0398Z" fill="#FF7424"/>
<path d="M83.4404 67.7219C83.4395 66.3759 82.3476 65.2855 81.0016 65.2864C79.6555 65.2873 78.5651 66.3792 78.566 67.7252C78.5669 69.0712 79.6588 70.1616 81.0048 70.1607C82.3508 70.1598 83.4413 69.0679 83.4404 67.7219Z" fill="#FF7424"/>
<path d="M83.4295 51.4149C83.4286 50.0689 82.3367 48.9785 80.9907 48.9794C79.6447 48.9803 78.5542 50.0722 78.5551 51.4182C78.556 52.7642 79.6479 53.8546 80.9939 53.8537C82.34 53.8528 83.4304 52.761 83.4295 51.4149Z" fill="#FF7424"/>
<path d="M78.5442 35.1003C78.5451 36.4518 79.6425 37.5367 80.983 37.5359C82.3234 37.535 83.4194 36.4375 83.4185 35.0971C83.4176 33.7566 82.3201 32.6606 80.9797 32.6615C79.6393 32.6624 78.5433 33.7599 78.5442 35.1003Z" fill="#FF7424"/>
<path d="M78.5333 18.7823C78.5342 20.1338 79.6317 21.2188 80.9721 21.2179C82.3125 21.217 83.4085 20.1195 83.4076 18.7791C83.4068 17.4386 82.3093 16.3426 80.9688 16.3435C79.6284 16.3444 78.5324 17.4419 78.5333 18.7823Z" fill="#FF7424"/>
<path d="M83.3968 2.47217C83.3959 1.12616 82.304 0.035747 80.958 0.0366447C79.612 0.0375425 78.5215 1.12941 78.5224 2.47542C78.5233 3.82143 79.6152 4.91187 80.9612 4.91097C82.3072 4.91007 83.3977 3.81818 83.3968 2.47217Z" fill="#FF7424"/>
<path d="M65.4163 84.0518C65.4172 85.4034 66.5147 86.4883 67.8551 86.4874C69.1956 86.4865 70.2916 85.389 70.2907 84.0486C70.2898 82.7081 69.1923 81.6122 67.8519 81.6131C66.5114 81.614 65.4154 82.7114 65.4163 84.0518Z" fill="#FF7424"/>
<path d="M65.4054 67.7338C65.4063 69.0854 66.5037 70.1703 67.8441 70.1694C69.1846 70.1685 70.2806 69.071 70.2797 67.7306C70.2788 66.3901 69.1813 65.2942 67.8409 65.2951C66.5004 65.296 65.4045 66.3934 65.4054 67.7338Z" fill="#FF7424"/>
<path d="M65.3945 51.427C65.3954 52.7785 66.4928 53.8634 67.8333 53.8625C69.1737 53.8616 70.2697 52.7642 70.2688 51.4237C70.2679 50.0833 69.1705 48.9873 67.83 48.9882C66.4896 48.9891 65.3936 50.0865 65.3945 51.427Z" fill="#FF7424"/>
<path d="M65.3836 35.1091C65.3845 36.4606 66.482 37.5455 67.8224 37.5446C69.1628 37.5437 70.2588 36.4463 70.258 35.1059C70.2571 33.7654 69.1596 32.6694 67.8191 32.6703C66.4787 32.6712 65.3827 33.7687 65.3836 35.1091Z" fill="#FF7424"/>
<path d="M65.3728 18.7911C65.3737 20.1426 66.4711 21.2275 67.8115 21.2266C69.152 21.2258 70.248 20.1283 70.2471 18.7878C70.2462 17.4474 69.1487 16.3514 67.8083 16.3523C66.4678 16.3532 65.3719 17.4506 65.3728 18.7911Z" fill="#FF7424"/>
<path d="M65.3618 2.48421C65.3627 3.83573 66.4601 4.92066 67.8006 4.91976C69.141 4.91887 70.237 3.8214 70.2361 2.48096C70.2352 1.14051 69.1377 0.0445398 67.7973 0.0454338C66.4569 0.0463278 65.3609 1.14376 65.3618 2.48421Z" fill="#FF7424"/>
</svg>
