<svg width="20" height="14" viewBox="0 0 20 14" fill="none" xmlns="http://www.w3.org/2000/svg">
<path d="M17.545 10.0252V7.60424H19.967V5.78924H17.545V3.36824H15.73V5.78924H13.309V7.60424H15.73V10.0252H17.545ZM6.052 3.30224C7.185 3.30224 7.948 3.78624 8.382 4.19824L10.104 2.52824C9.056 1.54824 7.689 0.948242 6.052 0.948242C2.714 0.947242 0 3.65924 0 7.00024C0 10.3412 2.714 13.0532 6.052 13.0532C9.545 13.0532 11.864 10.5962 11.864 7.14024C11.864 6.63724 11.8 6.28024 11.711 5.90024H6.049V8.15624H9.381C9.223 9.10724 8.37 10.7122 6.052 10.7122C4.049 10.7122 2.415 9.04724 2.415 7.00824C2.415 4.96624 4.049 3.30224 6.052 3.30224Z" fill="black"/>
</svg>
