<svg width="30" height="22" viewBox="0 0 30 22" fill="none" xmlns="http://www.w3.org/2000/svg">
<path fill-rule="evenodd" clip-rule="evenodd" d="M0 3.66662C0 2.69417 0.395088 1.76155 1.09835 1.07393C1.80161 0.386303 2.75544 0 3.75 0H26.25C27.2446 0 28.1984 0.386303 28.9016 1.07393C29.6049 1.76155 30 2.69417 30 3.66662V18.3331C30 19.3056 29.6049 20.2382 28.9016 20.9258C28.1984 21.6134 27.2446 21.9997 26.25 21.9997H3.75C2.75544 21.9997 1.80161 21.6134 1.09835 20.9258C0.395088 20.2382 0 19.3056 0 18.3331V3.66662ZM3.75 1.83331C3.25272 1.83331 2.77581 2.02646 2.42417 2.37027C2.07254 2.71409 1.875 3.1804 1.875 3.66662V4.06445L15 11.7644L28.125 4.06445V3.66662C28.125 3.1804 27.9275 2.71409 27.5758 2.37027C27.2242 2.02646 26.7473 1.83331 26.25 1.83331H3.75ZM28.125 6.20209L19.2975 11.3812L28.125 16.6923V6.20209ZM28.0612 18.8079L17.4862 12.4445L15 13.902L12.5138 12.4445L1.93875 18.8061C2.0453 19.1962 2.28059 19.541 2.60811 19.787C2.93562 20.033 3.33702 20.1664 3.75 20.1664H26.25C26.6627 20.1665 27.0639 20.0334 27.3914 19.7877C27.7189 19.5421 27.9544 19.1977 28.0612 18.8079ZM1.875 16.6923L10.7025 11.3812L1.875 6.20209V16.6923Z" fill="white"/>
</svg>
