<svg width="35" height="34" viewBox="0 0 35 34" fill="none" xmlns="http://www.w3.org/2000/svg">
<path fill-rule="evenodd" clip-rule="evenodd" d="M4.12434 1.06751C4.50708 0.701935 4.96668 0.418343 5.47266 0.235528C5.97865 0.0527133 6.51948 -0.0251493 7.0593 0.00710017C7.59912 0.0393496 8.12562 0.180975 8.6039 0.42259C9.08218 0.664205 9.50131 1.00029 9.83354 1.40858L13.76 6.2338C14.4796 7.11891 14.7334 8.27185 14.449 9.35993L13.2525 13.9424C13.1906 14.1798 13.194 14.4284 13.2622 14.6641C13.3304 14.8999 13.4612 15.1147 13.6419 15.2879L19.0164 20.4291C19.1976 20.6022 19.4226 20.7275 19.6694 20.7928C19.9163 20.8581 20.1766 20.8611 20.4251 20.8015L25.2134 19.6569C25.7747 19.5227 26.3606 19.5123 26.9267 19.6264C27.4929 19.7406 28.0245 19.9764 28.4814 20.3161L33.5256 24.0699C35.339 25.4196 35.5052 27.9828 33.8822 29.5334L31.6204 31.697C30.0017 33.2454 27.5824 33.9254 25.3271 33.1659C19.5549 31.2231 14.314 28.062 9.99322 23.9172C5.66055 19.7846 2.35604 14.772 0.32477 9.25113C-0.46708 7.09589 0.243835 4.77954 1.86253 3.23112L4.12434 1.06751Z" fill="white"/>
</svg>
