<svg width="20" height="16" viewBox="0 0 20 16" fill="none" xmlns="http://www.w3.org/2000/svg">
<path d="M17.633 3.805C17.646 3.97239 17.646 4.13882 17.646 4.30525C17.646 9.39867 13.593 15.2678 6.186 15.2678C3.904 15.2678 1.784 14.6356 0 13.5375C0.324 13.5729 0.636 13.5853 0.973 13.5853C2.78599 13.5895 4.54765 13.0096 5.974 11.9392C5.13342 11.9246 4.31858 11.6593 3.64324 11.1804C2.9679 10.7014 2.46578 10.0327 2.207 9.26762C2.456 9.30301 2.706 9.32693 2.968 9.32693C3.329 9.32693 3.692 9.2791 4.029 9.19589C3.11676 9.01971 2.29647 8.54675 1.70762 7.85743C1.11876 7.16811 0.797693 6.30498 0.799 5.4148V5.36698C1.336 5.65297 1.959 5.83184 2.619 5.85575C2.06609 5.50432 1.61272 5.02744 1.29934 4.46766C0.98596 3.90788 0.822313 3.2826 0.823 2.64762C0.823 1.93215 1.022 1.27598 1.371 0.703992C2.38314 1.89487 3.6455 2.86911 5.07634 3.56363C6.50717 4.25815 8.07456 4.65745 9.677 4.73568C9.615 4.44873 9.577 4.15125 9.577 3.85282C9.57674 3.34679 9.68075 2.84567 9.88308 2.37811C10.0854 1.91055 10.3821 1.48572 10.7562 1.12791C11.1303 0.770087 11.5744 0.4863 12.0632 0.292767C12.5521 0.0992337 13.076 -0.000250968 13.605 4.75446e-07C14.765 4.75446e-07 15.812 0.464864 16.548 1.21668C17.4498 1.04988 18.3145 0.735004 19.104 0.285997C18.8034 1.17633 18.1738 1.93129 17.333 2.40945C18.1328 2.32219 18.9144 2.12102 19.652 1.81259C19.1011 2.58076 18.4185 3.25438 17.633 3.805Z" fill="black"/>
</svg>
