<svg width="26" height="20" viewBox="0 0 26 20" fill="none" xmlns="http://www.w3.org/2000/svg">
<path d="M0.140276 4.97094L0.172682 4.74651L0.206379 4.75453C0.436691 3.64443 0.967249 2.62423 1.73666 1.81197C2.50608 0.999712 3.4829 0.428594 4.55412 0.164696C5.62533 -0.0992013 6.74714 -0.0450921 7.78976 0.320764C8.83238 0.686619 9.75319 1.34927 10.4456 2.23204C11.1381 3.11481 11.5739 4.18162 11.7026 5.30903C11.8313 6.43645 11.6477 7.57839 11.173 8.60272C10.6983 9.62706 9.95188 10.4919 9.02015 11.0973C8.08841 11.7026 7.00943 12.0236 5.90805 12.0232C5.61901 12.0232 5.34164 11.9778 5.06557 11.9364C5.155 12.2463 5.24702 12.5616 5.39478 12.8448C5.54254 13.2563 5.77325 13.613 6.00267 13.9723C6.19449 14.3611 6.53278 14.6243 6.78164 14.9569C7.04216 15.2802 7.3973 15.4953 7.67856 15.7638C7.95463 16.0443 8.31625 16.1846 8.60399 16.3823C8.9047 16.56 9.16651 16.7564 9.44648 16.8499L10.1451 17.1465L10.7595 17.4097L10.1321 20L9.35834 19.8076C9.11078 19.7435 8.80878 19.6687 8.46531 19.5792C8.11406 19.5124 7.73948 19.3294 7.32212 19.1624C6.91125 18.9713 6.43298 18.8444 5.9897 18.5385C5.54383 18.2473 5.02927 18.0041 4.57563 17.6141C4.13624 17.2119 3.60612 16.8633 3.21469 16.3529C2.78697 15.8747 2.36443 15.3724 2.03651 14.8006C1.65675 14.2556 1.39882 13.6571 1.12663 13.0653C0.880367 12.4734 0.68206 11.8683 0.520044 11.2805C0.212862 10.1022 0.07547 8.9827 0.0223293 8.02485C-0.02174 7.06566 0.00418282 6.26812 0.0586205 5.691C0.0768337 5.44999 0.104073 5.20979 0.140276 4.97094ZM14.3977 4.97094L14.4301 4.74651L14.4638 4.75453C14.6941 3.64443 15.2247 2.62423 15.9941 1.81197C16.7635 0.999712 17.7403 0.428594 18.8115 0.164696C19.8827 -0.0992013 21.0046 -0.0450921 22.0472 0.320764C23.0898 0.686619 24.0106 1.34927 24.703 2.23204C25.3955 3.11481 25.8313 4.18162 25.96 5.30903C26.0887 6.43645 25.9051 7.57839 25.4304 8.60272C24.9557 9.62706 24.2093 10.4919 23.2776 11.0973C22.3458 11.7026 21.2668 12.0236 20.1655 12.0232C19.8764 12.0232 19.5991 11.9778 19.323 11.9364C19.4124 12.2463 19.5044 12.5616 19.6522 12.8448C19.8 13.2563 20.0307 13.613 20.2601 13.9723C20.4519 14.3611 20.7902 14.6243 21.039 14.9569C21.2996 15.2802 21.6547 15.4953 21.936 15.7638C22.212 16.0443 22.5737 16.1846 22.8614 16.3823C23.1621 16.56 23.4239 16.7564 23.7039 16.8499L24.4025 17.1465C24.7926 17.3108 25.0156 17.407 25.0156 17.407L24.3882 19.9973L23.6145 19.805C23.3669 19.7408 23.0649 19.666 22.7214 19.5765C22.3702 19.5097 21.9956 19.3267 21.5782 19.1597C21.1674 18.9687 20.6891 18.8418 20.2458 18.5358C19.8 18.2446 19.2854 18.0015 18.8317 17.6114C18.3924 17.2093 17.8622 16.8606 17.4708 16.3503C17.0431 15.872 16.6205 15.3697 16.2926 14.7979C15.9129 14.2529 15.6549 13.6544 15.3827 13.0626C15.1365 12.4708 14.9382 11.8656 14.7762 11.2778C14.469 10.0995 14.3316 8.98003 14.2784 8.02218C14.2344 7.06299 14.2603 6.26545 14.3147 5.68833C14.3341 5.44826 14.3618 5.20898 14.3977 4.97094Z" fill="#FF7424"/>
</svg>
