<svg width="26" height="20" viewBox="0 0 26 20" fill="none" xmlns="http://www.w3.org/2000/svg">
<path d="M25.8597 4.97094L25.8273 4.74651L25.7936 4.75453C25.5633 3.64443 25.0328 2.62423 24.2633 1.81197C23.4939 0.999712 22.5171 0.428594 21.4459 0.164696C20.3747 -0.0992013 19.2529 -0.0450921 18.2102 0.320764C17.1676 0.686619 16.2468 1.34927 15.5544 2.23204C14.8619 3.11481 14.4261 4.18162 14.2974 5.30903C14.1687 6.43645 14.3523 7.57839 14.827 8.60272C15.3017 9.62706 16.0481 10.4919 16.9799 11.0973C17.9116 11.7026 18.9906 12.0236 20.092 12.0232C20.381 12.0232 20.6584 11.9778 20.9344 11.9364C20.845 12.2463 20.753 12.5616 20.6052 12.8448C20.4575 13.2563 20.2268 13.613 19.9973 13.9723C19.8055 14.3611 19.4672 14.6243 19.2184 14.9569C18.9578 15.2802 18.6027 15.4953 18.3214 15.7638C18.0454 16.0444 17.6837 16.1846 17.396 16.3823C17.0953 16.56 16.8335 16.7564 16.5535 16.8499L15.8549 17.1465L15.2405 17.4097L15.8679 20L16.6417 19.8076C16.8892 19.7435 17.1912 19.6687 17.5347 19.5792C17.8859 19.5124 18.2605 19.3294 18.6779 19.1624C19.0888 18.9713 19.567 18.8444 20.0103 18.5385C20.4562 18.2473 20.9707 18.0041 21.4244 17.6141C21.8638 17.2119 22.3939 16.8633 22.7853 16.3529C23.213 15.8747 23.6356 15.3724 23.9635 14.8006C24.3433 14.2556 24.6012 13.6571 24.8734 13.0653C25.1196 12.4734 25.3179 11.8683 25.48 11.2805C25.7871 10.1022 25.9245 8.9827 25.9777 8.02485C26.0217 7.06566 25.9958 6.26812 25.9414 5.691C25.9232 5.44999 25.8959 5.20979 25.8597 4.97094ZM11.6023 4.97094L11.5699 4.74651L11.5362 4.75453C11.3059 3.64443 10.7753 2.62423 10.0059 1.81197C9.23651 0.999712 8.25969 0.428594 7.18847 0.164696C6.11726 -0.0992013 4.99545 -0.0450921 3.95283 0.320764C2.91021 0.686619 1.98941 1.34927 1.29695 2.23204C0.604495 3.11481 0.168695 4.18162 0.039974 5.30903C-0.088747 6.43645 0.0948724 7.57839 0.569586 8.60272C1.0443 9.62706 1.79071 10.4919 2.72244 11.0973C3.65418 11.7026 4.73316 12.0236 5.83454 12.0232C6.12358 12.0232 6.40095 11.9778 6.67703 11.9364C6.58759 12.2463 6.49557 12.5616 6.34781 12.8448C6.20005 13.2563 5.96934 13.613 5.73992 13.9723C5.5481 14.3611 5.20981 14.6243 4.96095 14.9569C4.70043 15.2802 4.34529 15.4953 4.06403 15.7638C3.78796 16.0444 3.42634 16.1846 3.1386 16.3823C2.83789 16.56 2.57608 16.7564 2.29611 16.8499L1.5975 17.1465C1.20736 17.3108 0.98443 17.407 0.98443 17.407L1.61176 19.9973L2.38555 19.805C2.63311 19.7408 2.9351 19.666 3.27858 19.5765C3.62983 19.5097 4.00441 19.3267 4.42176 19.1597C4.83263 18.9687 5.31091 18.8418 5.75418 18.5358C6.20005 18.2446 6.71461 18.0015 7.16826 17.6114C7.60765 17.2093 8.13776 16.8606 8.52919 16.3503C8.95692 15.872 9.37945 15.3697 9.70737 14.7979C10.0871 14.2529 10.3451 13.6544 10.6173 13.0626C10.8635 12.4708 11.0618 11.8656 11.2238 11.2778C11.531 10.0995 11.6684 8.98003 11.7216 8.02218C11.7656 7.06299 11.7397 6.26545 11.6853 5.68833C11.6659 5.44826 11.6382 5.20898 11.6023 4.97094Z" fill="#FF7424"/>
</svg>
