<svg width="147" height="44" viewBox="0 0 147 44" fill="none" xmlns="http://www.w3.org/2000/svg">
<path fill-rule="evenodd" clip-rule="evenodd" d="M91.5072 33.8603C83.0448 39.8823 70.7358 43.0907 60.1193 43.0907C45.246 43.0907 31.9112 37.8092 21.7563 29.023C20.987 28.3319 21.6537 27.3941 22.6282 27.9371C33.5524 34.0578 47.041 37.7104 60.9912 37.7104C70.3768 37.7104 80.7369 35.8347 90.2763 31.9353C91.7124 31.3923 92.892 32.8731 91.5072 33.8603Z" fill="#898989"/>
<path fill-rule="evenodd" clip-rule="evenodd" d="M95.0457 29.9608C93.9687 28.6281 87.8655 29.3191 85.1473 29.6647C84.3267 29.7634 84.1728 29.0723 84.9421 28.5787C89.8144 25.2716 97.764 26.2588 98.6871 27.3447C99.6103 28.4306 98.4307 36.1309 93.8661 39.7836C93.1481 40.3265 92.4814 40.0304 92.7891 39.29C93.8148 36.8219 96.1228 31.3429 95.0457 29.9608Z" fill="#898989"/>
<path fill-rule="evenodd" clip-rule="evenodd" d="M85.301 5.37915V2.17071C85.301 1.67711 85.66 1.38094 86.1216 1.38094H100.995C101.457 1.38094 101.867 1.72647 101.867 2.17071V4.88554C101.867 5.32979 101.457 5.92212 100.738 6.90933L93.0454 17.4725C95.9175 17.4231 98.9434 17.818 101.508 19.2001C102.072 19.4963 102.226 19.9899 102.277 20.4341V23.84C102.277 24.3336 101.764 24.8766 101.2 24.5804C96.6355 22.2605 90.5323 22.0137 85.5061 24.6298C84.9933 24.8766 84.4291 24.383 84.4291 23.8894V20.6316C84.4291 20.1379 84.4291 19.2495 84.9933 18.4597L93.9173 6.16892H86.1729C85.7113 6.16892 85.301 5.82339 85.301 5.37915ZM31.0902 25.2714H26.5769C26.1666 25.2221 25.8076 24.9259 25.7563 24.531V2.22007C25.7563 1.77583 26.1666 1.4303 26.6282 1.4303H30.8337C31.2953 1.4303 31.603 1.77583 31.6543 2.17071V5.08298H31.7569C32.8339 2.26943 34.9367 0.936697 37.7062 0.936697C40.527 0.936697 42.3221 2.26943 43.553 5.08298C44.63 2.26943 47.1431 0.936697 49.8101 0.936697C51.7077 0.936697 53.7592 1.67711 55.0414 3.40472C56.4774 5.28043 56.1697 7.99526 56.1697 10.4139V24.531C56.1697 24.9753 55.7594 25.3208 55.2978 25.3208H50.8358C50.3742 25.2714 50.0152 24.9259 50.0152 24.531V12.6845C50.0152 11.7467 50.1178 9.37735 49.9127 8.48885C49.5536 7.00804 48.5792 6.5638 47.2457 6.5638C46.1687 6.5638 44.9891 7.25485 44.5275 8.39014C44.0659 9.52544 44.1172 11.4011 44.1172 12.6845V24.531C44.1172 24.9753 43.7069 25.3208 43.2453 25.3208H38.732C38.2704 25.2714 37.9114 24.9259 37.9114 24.531V12.6845C37.9114 10.2165 38.3217 6.51443 35.1419 6.51443C31.9108 6.51443 32.0133 10.0684 32.0133 12.6845V24.531C31.962 24.9259 31.603 25.2714 31.0902 25.2714ZM114.689 0.936697C121.407 0.936697 125.049 6.46508 125.049 13.5236C125.049 20.3354 121.048 25.765 114.689 25.765C108.124 25.765 104.534 20.2367 104.534 13.3262C104.482 6.36636 108.124 0.936697 114.689 0.936697ZM114.689 5.52722C111.355 5.52722 111.15 9.92032 111.15 12.6352C111.15 15.35 111.099 21.1745 114.637 21.1745C118.125 21.1745 118.33 16.4853 118.33 13.6224C118.33 11.7467 118.228 9.47608 117.663 7.6991C117.15 6.11956 116.125 5.52722 114.689 5.52722ZM133.716 25.2714H129.203C128.741 25.2221 128.382 24.8766 128.382 24.4817V2.12135C128.434 1.72646 128.793 1.38094 129.254 1.38094H133.46C133.87 1.38094 134.178 1.67711 134.281 2.02264V5.42851H134.383C135.665 2.36816 137.409 0.936697 140.538 0.936697C142.538 0.936697 144.538 1.62774 145.82 3.5528C147 5.32978 147 8.34078 147 10.5126V24.5804C146.948 24.9753 146.589 25.2714 146.128 25.2714H141.615C141.204 25.2221 140.845 24.9259 140.794 24.5804V12.4377C140.794 9.96967 141.102 6.41572 137.973 6.41572C136.896 6.41572 135.87 7.10677 135.358 8.1927C134.742 9.5748 134.639 10.9075 134.639 12.4377V24.4817C134.588 24.9259 134.178 25.2714 133.716 25.2714ZM73.4536 14.6096C73.4536 16.2878 73.5049 17.7193 72.633 19.2495C71.915 20.4835 70.7866 21.2239 69.5044 21.2239C67.7607 21.2239 66.7349 19.9405 66.7349 18.0648C66.7349 14.3628 70.1712 13.6717 73.4536 13.6717V14.6096ZM78.0182 25.2221C77.7104 25.4689 77.3001 25.5182 76.9411 25.3208C75.4538 24.1362 75.1461 23.5438 74.3255 22.4085C71.8637 24.8272 70.0686 25.5676 66.8888 25.5676C63.0935 25.5676 60.1189 23.297 60.1189 18.8052C60.1189 15.2513 62.1191 12.8819 64.9399 11.6973C67.4017 10.6607 70.8379 10.4633 73.4536 10.1671V9.62416C73.4536 8.58759 73.5562 7.35357 72.8894 6.46508C72.3253 5.67532 71.2995 5.32978 70.3763 5.32978C68.6326 5.32978 67.0939 6.16892 66.7349 7.9459C66.6324 8.34079 66.3759 8.73566 65.9656 8.73566L61.6062 8.29142C61.2472 8.19269 60.8369 7.9459 60.9395 7.40293C61.9652 2.26944 66.7349 0.739258 71.0431 0.739258C73.2484 0.739258 76.1205 1.28222 77.8643 2.91112C80.0697 4.88554 79.8645 7.55102 79.8645 10.4139V17.1763C79.8645 19.2001 80.7364 20.0886 81.557 21.2239C81.8647 21.6188 81.916 22.1124 81.557 22.3592C80.5825 23.0996 78.9413 24.4817 78.0182 25.2221ZM14.2166 14.6096C14.2166 16.2878 14.2679 17.7193 13.396 19.2495C12.678 20.4835 11.5496 21.2239 10.2675 21.2239C8.52368 21.2239 7.49793 19.9405 7.49793 18.0648C7.49793 14.3628 10.9342 13.6717 14.2166 13.6717V14.6096ZM18.7299 25.2221C18.4222 25.4689 18.0119 25.5182 17.6528 25.3208C16.1655 24.1362 15.8578 23.5438 15.0372 22.4085C12.5754 24.8272 10.7803 25.5676 7.60051 25.5676C3.80524 25.5676 0.830566 23.297 0.830566 18.8052C0.830566 15.2513 2.83077 12.8819 5.65158 11.6973C8.11338 10.6607 11.5496 10.4633 14.1653 10.1671V9.62416C14.1653 8.58759 14.2679 7.35357 13.6011 6.46508C13.037 5.67532 12.0112 5.32978 11.0881 5.32978C9.34428 5.32978 7.80566 6.16892 7.44664 7.9459C7.34407 8.34079 7.08763 8.73566 6.67733 8.73566L2.3179 8.29142C1.95889 8.19269 1.54859 7.9459 1.65117 7.40293C2.67692 2.26944 7.44665 0.739258 11.7548 0.739258C13.9602 0.739258 16.8323 1.28222 18.576 2.91112C20.7814 4.88554 20.5762 7.55102 20.5762 10.4139V17.1763C20.5762 19.2001 21.4481 20.0886 22.2687 21.2239C22.5764 21.6188 22.6277 22.1124 22.2687 22.3592C21.2943 23.0996 19.6531 24.4817 18.7299 25.2221Z" fill="#898989"/>
</svg>
