<svg width="116" height="50" viewBox="0 0 116 50" fill="none" xmlns="http://www.w3.org/2000/svg">
<path d="M71.1516 36.6085H84.7556C87.9323 36.6085 91.6755 37.8367 91.6755 42.6941C91.6755 47.9713 88.2557 49.3395 84.7556 49.3395H71.1516V46.7914H73.7491V39.159H71.1516V36.6085ZM79.0342 46.7889H82.7323C84.9111 46.7889 86.107 45.1746 86.107 42.974C86.107 41.0677 85.064 39.159 82.7724 39.159H79.0367L79.0342 46.7889ZM35.0556 36.1814C37.5427 36.1814 45.2974 36.4879 45.2974 42.9764C45.2974 49.4674 37.5778 49.7907 35.0556 49.7907C32.5308 49.7907 24.7761 49.5011 24.7761 42.9764C24.7786 36.5458 32.5684 36.1814 35.0556 36.1814ZM30.6329 42.9788C30.6329 46.123 32.6336 47.2402 35.0556 47.2402C37.5151 47.2402 39.4783 46.0868 39.4783 42.9788C39.4783 39.8323 37.4775 38.7175 35.0556 38.7175C32.5935 38.7175 30.6329 39.9071 30.6329 42.9788ZM0 46.7962H2.60497V39.1687H0V36.6013H10.465V39.1687H7.86506V41.6855H15.8429V39.1687H13.2455V36.6013H23.7005V39.1687H21.0955V46.7962H23.7005V49.3443H13.2455V46.7962H15.8429V44.1998H7.86506V46.7962H10.465V49.3443H0V46.7962ZM54.6593 49.3371H46.3705V46.8034H48.9429L48.9454 39.1566H46.3705V36.6061H56.813L64.2092 46.1567V39.1566H61.6243V36.6061H69.9657L69.9632 39.1566H67.3908V49.3371H59.5157L52.102 39.7695V46.8034H54.6593V49.3371ZM115.441 46.8034V49.3395H104.131V46.8034H106.761L105.751 44.9937H98.7784L97.7805 46.8034H100.388V49.3395H91.7883V46.8034H94.3833L98.9188 39.159H95.7697V36.6085H106.716L112.869 46.8058L115.441 46.8034ZM104.422 42.6096L102.258 38.7054L100.097 42.6096H104.422ZM56.1085 19.2422C55.7324 19.2422 55.3538 19.2615 55.0554 19.3001C53.6389 19.4835 53.1073 19.8382 52.6084 20.7431C52.285 21.327 51.6356 23.0957 51.1166 25.3495C50.1006 25.3153 49.085 25.267 48.0704 25.2047C47.7169 22.0388 46.902 8.86147 46.8795 4.33951C47.4536 4.30332 48.0629 4.25506 48.7348 4.22852C49.141 6.31817 50.4949 13.6006 51.603 15.8905C52.0944 16.9112 52.9519 17.2587 54.0024 17.3359C55.4063 17.4059 56.8131 17.4059 58.217 17.3359C59.265 17.2587 60.1225 16.9112 60.6139 15.8905C61.7196 13.6006 63.0734 6.32058 63.4821 4.22852C64.154 4.25747 64.7658 4.30332 65.3374 4.33951C65.3149 8.86388 64.5025 22.0388 64.144 25.2047C63.2364 25.2626 62.1884 25.3109 61.0978 25.3495C60.5788 23.0933 59.9294 21.327 59.606 20.7431C59.1096 19.8382 58.578 19.4835 57.159 19.3001C56.8104 19.2593 56.4596 19.24 56.1085 19.2422Z" fill="#898989"/>
<path d="M56.1083 28.7735C53.2827 28.7735 46.8242 28.607 44.6981 28.2234C42.4391 27.8156 40.9148 26.5681 40.1676 24.517C39.5283 22.7676 39.0569 19.5197 38.7661 14.8626C38.5856 11.9453 38.5881 9.32479 38.7736 7.0807C39.0945 3.26093 40.9273 1.73833 44.7608 1.32088C47.3231 1.0458 53.0496 0.913086 56.1083 0.913086C59.1671 0.913086 64.8936 1.0458 67.4509 1.3233C71.2844 1.74074 73.1196 3.26334 73.4381 7.08312C73.6261 9.3272 73.6286 11.9477 73.4481 14.865C73.1598 19.5221 72.6884 22.77 72.0491 24.5194C71.2994 26.5705 69.7776 27.8156 67.5136 28.2258C65.395 28.607 58.934 28.7735 56.1083 28.7735ZM67.1926 26.5632C67.9149 26.4324 68.5895 26.1235 69.1507 25.6667C69.7119 25.21 70.1404 24.621 70.3943 23.9572C70.7955 22.8545 71.3496 20.3667 71.6981 14.7589C71.8761 11.9188 71.8736 9.38029 71.6905 7.21342C71.4749 4.62186 70.116 3.30919 67.2553 2.99791C64.7632 2.72766 59.1295 2.60218 56.1083 2.60218C53.0872 2.60218 47.4535 2.72766 44.9589 3.00033C42.1007 3.3116 40.7418 4.62427 40.5236 7.21583C40.3431 9.3827 40.3431 11.9212 40.5186 14.7613C40.8671 20.3691 41.4212 22.8545 41.8224 23.9596C42.2085 25.0165 43.2866 26.2495 45.0215 26.5656C46.8092 26.8866 52.6835 27.0869 56.1083 27.0869C59.5332 27.0869 65.405 26.8866 67.1926 26.5632Z" fill="#898989"/>
</svg>
