<svg width="206" height="53" viewBox="0 0 206 53" fill="none" xmlns="http://www.w3.org/2000/svg">
<path fill-rule="evenodd" clip-rule="evenodd" d="M191.559 13.5736C191.368 13.6116 191.176 14.0306 191.176 14.2589C191.137 15.7831 191.099 19.8214 191.099 22.5643C191.099 22.6407 191.214 22.793 191.329 22.793C191.905 22.831 193.287 22.869 194.478 22.869C196.129 22.869 197.088 22.6407 197.626 22.4124C199.008 21.7262 199.661 20.2405 199.661 18.6019C199.661 14.907 197.05 13.4972 193.172 13.4972C192.903 13.4592 192.136 13.4592 191.559 13.5736ZM201.466 30.603C201.466 26.8314 198.663 24.7358 193.595 24.7358C193.364 24.7358 191.752 24.6978 191.368 24.7738C191.252 24.8122 191.099 24.8886 191.099 25.0029C191.099 27.7074 191.061 32.0129 191.176 33.689C191.252 34.4127 191.79 35.4415 192.443 35.7461C193.134 36.1272 194.708 36.2031 195.783 36.2031C198.816 36.2031 201.466 34.527 201.466 30.603ZM183.727 11.4784C184.111 11.4784 185.263 11.5924 188.219 11.5924C191.022 11.5924 193.249 11.5164 195.975 11.5164C199.315 11.5164 203.923 12.6971 203.923 17.6499C203.923 20.0881 202.195 22.0313 199.93 22.9837C199.815 23.0217 199.815 23.0977 199.93 23.1357C203.155 23.9362 205.996 25.9169 205.996 29.6502C205.996 33.3079 203.693 35.6318 200.352 37.0796C198.317 37.9556 195.783 38.2603 193.211 38.2603C191.252 38.2603 185.992 38.032 183.075 38.1084C182.768 37.9936 183.343 36.6222 183.612 36.3939C184.303 36.3555 184.84 36.3175 185.57 36.0888C186.607 35.8225 186.722 35.5174 186.875 33.9557C186.952 32.6222 186.952 27.8977 186.952 24.5455C186.952 19.9358 186.991 16.8119 186.952 15.2881C186.914 14.1074 186.492 13.7259 185.647 13.4972C184.994 13.3833 183.919 13.2305 183.036 13.1166C182.844 12.9258 183.496 11.6304 183.727 11.4784ZM161.573 35.1748C162.495 35.8981 164.299 36.2027 165.912 36.2027C167.985 36.2027 170.058 35.8225 172.055 34.0312C174.09 32.2032 175.51 29.3839 175.51 24.8886C175.51 20.5831 173.86 17.0781 170.481 15.0214C168.561 13.8399 166.104 13.3453 163.262 13.3453C162.418 13.3453 161.611 13.3833 161.113 13.6116C160.997 13.6879 160.729 14.0306 160.729 14.2209C160.652 14.983 160.652 20.8498 160.652 24.2788C160.652 27.8218 160.652 32.7745 160.729 33.3459C160.729 33.9177 160.997 34.7937 161.573 35.1748H161.573ZM152.857 11.478C153.587 11.478 156.389 11.5924 157.733 11.5924C160.153 11.5924 161.88 11.4784 166.449 11.4784C170.288 11.4784 173.514 12.5068 175.818 14.4496C178.62 16.8498 180.08 20.1645 180.08 24.2024C180.08 29.9553 177.43 33.2699 174.781 35.1748C172.132 37.1176 168.676 38.2603 163.762 38.2603C161.151 38.2603 156.659 38.1843 152.934 38.1459H152.896C152.704 37.8033 153.203 36.4698 153.51 36.4319C154.508 36.3175 154.777 36.2791 155.276 36.0892C156.082 35.7841 156.236 35.3651 156.351 33.9557C156.466 31.3267 156.428 28.1648 156.428 24.5835C156.428 22.0313 156.466 17.0402 156.389 15.44C156.275 14.107 155.699 13.7639 154.547 13.5352C153.971 13.4212 153.203 13.2685 152.128 13.1546C151.974 12.8874 152.665 11.7063 152.857 11.478Z" fill="#767272"/>
<path fill-rule="evenodd" clip-rule="evenodd" d="M106.863 37.07C105.905 36.9512 105.216 36.7933 104.373 36.3974C104.258 36.318 104.066 35.9225 104.066 35.7637C103.99 34.3781 103.99 30.4193 103.99 27.7672C103.99 25.6291 103.645 23.7686 102.764 22.4623C101.729 20.9573 100.236 20.0869 98.3201 20.0869C96.6348 20.0869 94.3745 21.2744 92.4973 22.9372C92.4591 22.9766 92.1528 23.2542 92.191 22.8183C92.191 22.3829 92.2678 21.512 92.306 20.9179C92.3446 20.3636 92.0378 20.0869 92.0378 20.0869C90.812 20.7201 87.3644 21.5515 86.1 21.6699C85.1809 21.8685 84.951 22.7789 85.909 23.0955H85.9472C86.9809 23.4121 87.6708 23.7686 88.2067 24.1251C88.5899 24.4417 88.5517 24.8771 88.5517 25.2336C88.5899 28.2022 88.5899 32.7552 88.4753 35.2494C88.4371 36.2391 88.1689 36.5951 87.479 36.7534L87.5558 36.714C87.0195 36.8328 86.5981 36.9512 85.9468 37.0306C85.7168 37.2682 85.7168 38.535 85.9468 38.8122C86.3682 38.8122 88.5899 38.6933 90.4292 38.6933C92.9573 38.6933 94.2599 38.8122 94.9108 38.8122C95.179 38.4956 95.2558 37.3077 95.1026 37.0306C94.3745 36.9911 93.8381 36.9122 93.3404 36.7534C92.6509 36.5947 92.4591 36.2391 92.4205 35.4077C92.3446 33.309 92.3446 28.8753 92.3446 25.8668C92.3446 25.0354 92.5741 24.6394 92.8037 24.4018C93.685 23.6103 95.1026 23.056 96.3666 23.056C97.5924 23.056 98.3965 23.452 99.0096 23.9668C99.8523 24.6789 100.12 25.7085 100.235 26.4605C100.427 28.1628 100.35 31.5278 100.35 34.4574C100.35 36.0409 100.235 36.4368 99.6614 36.6346C99.3928 36.7534 98.7033 36.9122 97.8988 36.9907C97.6306 37.2682 97.7074 38.4956 97.8988 38.7727C99.0096 38.7727 100.312 38.6539 102.228 38.6539C104.602 38.6539 106.135 38.7727 106.748 38.7727C106.939 38.535 107.016 37.3871 106.863 37.07ZM117.474 21.9479C115.444 21.9479 114.18 23.5708 114.18 26.104C114.18 28.6776 115.29 31.6467 118.432 31.6467C118.968 31.6467 119.964 31.409 120.423 30.8547C121.151 30.1426 121.65 28.717 121.65 27.2125C121.65 23.9269 120.079 21.9479 117.474 21.9479ZM117.206 39.4454C116.44 39.4454 115.903 39.683 115.559 39.8812C113.95 40.9494 113.222 41.979 113.222 43.2068C113.222 44.3544 113.643 45.2647 114.563 46.0566C115.674 47.0463 117.206 47.5217 119.159 47.5217C123.067 47.5217 124.791 45.3441 124.791 43.2068C124.791 41.7019 124.063 40.7122 122.569 40.1584C121.496 39.683 119.543 39.4454 117.206 39.4454ZM117.474 49.7387C115.137 49.7387 113.451 49.2239 111.996 48.0759C110.578 46.9674 109.966 45.3046 109.966 44.1566C109.966 43.84 110.043 42.9687 110.732 42.1772C111.153 41.7019 112.073 40.7916 114.256 39.2476C114.333 39.2081 114.371 39.1687 114.371 39.0889C114.371 39.0099 114.294 38.9306 114.218 38.8915C112.417 38.179 111.881 37.0306 111.728 36.3974V36.318C111.69 36.0803 111.613 35.8431 111.958 35.6054C112.226 35.4077 112.609 35.17 113.03 34.8933C113.681 34.4969 114.371 34.0615 114.792 33.705C114.869 33.626 114.869 33.5471 114.869 33.4677C114.869 33.3884 114.792 33.309 114.716 33.27C112.035 32.3592 110.694 30.3005 110.694 27.2125C110.694 25.1937 111.575 23.3726 113.145 22.2246C114.218 21.3537 116.899 20.2847 118.662 20.2847H118.777C120.577 20.3242 121.573 20.7201 122.99 21.2349C123.756 21.512 124.484 21.6304 125.481 21.6304C126.974 21.6304 127.626 21.1555 128.161 20.6017C128.2 20.6806 128.277 20.8788 128.315 21.3932C128.353 21.908 128.2 22.66 127.817 23.2143C127.511 23.6497 126.821 23.9668 126.132 23.9668H125.94C125.25 23.8874 124.944 23.808 124.944 23.808L124.791 23.8874C124.753 23.9668 124.791 24.0457 124.829 24.1645L124.868 24.2439C124.944 24.6 125.097 25.6686 125.097 25.9461C125.097 29.1924 123.833 30.6171 122.492 31.6861C121.19 32.6758 119.696 33.309 118.01 33.4677C117.972 33.4677 117.819 33.4677 117.474 33.5072C117.283 33.5072 117.014 33.5471 116.976 33.5471H116.938C116.631 33.626 115.865 34.022 115.865 34.6947C115.865 35.2884 116.21 36.0014 117.857 36.1202C118.202 36.1597 118.546 36.1597 118.93 36.1996C121.113 36.3575 123.833 36.5557 125.097 36.9911C126.859 37.6638 127.97 39.2871 127.97 41.227C127.97 44.157 125.94 46.8885 122.569 48.5903C120.922 49.3428 119.274 49.7387 117.474 49.7387ZM139.309 22.1457C138.505 22.1457 137.777 22.343 137.24 22.739C135.747 23.6892 134.981 25.5897 134.981 28.3605C134.981 33.5471 137.509 37.1893 141.11 37.1893C142.182 37.1893 143.025 36.8723 143.753 36.2391C144.864 35.2884 145.439 33.3884 145.439 30.7359C145.439 25.5897 142.948 22.1452 139.309 22.1452L139.309 22.1457ZM139.999 39.0893C133.487 39.0893 131.15 34.1408 131.15 29.509C131.15 26.2627 132.414 23.7686 134.942 21.9869C136.743 20.8389 138.888 20.2057 140.803 20.2057C145.783 20.2057 149.269 23.8874 149.269 29.1924C149.269 32.7946 147.89 35.6449 145.247 37.3871C143.983 38.2579 141.799 39.0893 139.998 39.0893H139.999ZM71.7349 22.1452C70.9305 22.1452 70.2028 22.343 69.666 22.739C68.1724 23.6892 67.4061 25.5897 67.4061 28.3605C67.4061 33.5471 69.9342 37.1893 73.5353 37.1893C74.608 37.1893 75.4506 36.8723 76.1788 36.2391C77.2892 35.2884 77.8641 33.3884 77.8641 30.7359C77.8641 25.5897 75.4124 22.1452 71.7349 22.1452ZM72.4245 39.0893C65.9121 39.0893 63.5755 34.1408 63.5755 29.509C63.5755 26.2627 64.8395 23.7686 67.3675 21.9869C69.1683 20.8389 71.3136 20.2057 73.2289 20.2057C78.2091 20.2057 81.6948 23.8874 81.6948 29.1924C81.6948 32.7946 80.3158 35.6449 77.6723 37.3871C76.4465 38.2579 74.263 39.0893 72.4245 39.0893ZM28.639 38.6933C28.5622 38.5749 28.4854 38.2184 28.524 37.783C28.524 37.466 28.6008 37.2682 28.639 37.1893C29.4435 37.07 29.8648 36.9512 30.3244 36.8328C31.0907 36.6346 31.397 36.1996 31.4352 35.2099C31.5506 32.8345 31.5506 28.3211 31.512 25.1937V25.1143C31.512 24.7583 31.512 24.3224 31.0907 24.0058C30.4775 23.6103 29.7498 23.2542 28.7922 22.9762C28.4476 22.8582 28.2177 22.66 28.2558 22.4228C28.2558 22.1851 28.4858 21.908 28.984 21.8286C30.248 21.7098 33.5419 20.8788 34.8445 20.2847C34.9213 20.3636 35.0363 20.6017 35.0363 20.9183L34.9981 21.3533C34.9595 21.7892 34.9213 22.304 34.9213 22.8183C34.9213 22.9766 35.0749 23.0955 35.2277 23.0955C35.3045 23.0955 35.3813 23.056 35.4577 23.0161C37.9093 21.0367 40.131 20.3241 41.2801 20.3241C43.1576 20.3241 44.6134 21.2349 45.7243 23.1349C45.8007 23.2542 45.8775 23.2937 45.9924 23.2937C46.0688 23.2937 46.1834 23.2542 46.222 23.1748C48.4823 21.3932 50.7426 20.3241 52.2362 20.3241C55.7987 20.3241 57.9058 23.056 57.9058 27.6879C57.9058 28.9942 57.9058 30.6964 57.8676 32.2408C57.8676 33.626 57.8294 34.8929 57.8294 35.8036C57.8294 36.001 58.0972 36.6346 58.5185 36.7534C59.0549 37.0306 59.783 37.1494 60.7406 37.3077H60.7788C60.8556 37.5848 60.7024 38.614 60.5493 38.8122C60.3193 38.8122 59.9743 38.8122 59.5916 38.7727C58.6219 38.7204 57.651 38.694 56.68 38.6933C54.3051 38.6933 53.0793 38.7328 51.8912 38.8122C51.8153 38.4956 51.7767 37.5454 51.8912 37.3077C52.5811 37.1893 52.9257 37.07 53.3474 36.9516C54.1137 36.714 54.3051 36.3575 54.3437 35.3283C54.3437 34.5763 54.4965 28.1628 54.2665 26.6188C54.037 25.0354 52.8875 23.1748 50.359 23.1748C49.4014 23.1748 47.9078 23.5708 46.452 24.7184C46.3756 24.7977 46.2984 24.9955 46.2984 25.1143V25.1542C46.452 25.9852 46.452 26.9358 46.452 28.4004V30.9736C46.452 32.7552 46.4134 34.418 46.452 35.6844C46.452 36.5557 46.9501 36.7534 47.3715 36.9122C47.6014 36.9512 47.7542 36.9911 47.946 37.0306C48.2905 37.1099 48.6355 37.1893 49.1718 37.3077C49.2486 37.4664 49.2486 37.9808 49.1336 38.4162C49.095 38.6539 49.0182 38.7723 48.98 38.8122C47.6778 38.7727 46.337 38.7328 44.3835 38.7328C43.8089 38.7328 42.8127 38.7727 41.97 38.7727C41.2801 38.7727 40.6292 38.8122 40.2464 38.8122C40.2078 38.7328 40.131 38.4561 40.131 38.0203C40.131 37.6642 40.2078 37.3871 40.2846 37.3077C40.476 37.2682 40.6292 37.2288 40.821 37.2288C41.2801 37.1494 41.6636 37.07 42.0464 36.9911C42.6981 36.7933 42.9277 36.4368 42.9658 35.566C43.0808 33.5866 43.1958 27.9255 42.9277 26.5C42.4681 24.204 41.2041 23.056 39.1734 23.056C37.9861 23.056 36.4917 23.6497 35.2663 24.6004C35.0745 24.7583 34.9213 25.1538 34.9213 25.5103V27.8462C34.9213 30.6964 34.9213 34.2597 34.9595 35.8036C34.9981 36.2781 35.1509 36.8328 36.0322 37.0306C36.224 37.07 36.5303 37.1494 36.9135 37.1893L37.6026 37.3077C37.6798 37.5454 37.6412 38.4956 37.488 38.8122C37.1048 38.8122 36.6453 38.7727 36.1086 38.7727C35.3045 38.7328 34.27 38.6933 33.121 38.6933C31.7802 38.6933 30.8225 38.7328 30.0562 38.7727C29.5199 38.6933 29.0985 38.6933 28.639 38.6933Z" fill="#767272"/>
<path fill-rule="evenodd" clip-rule="evenodd" d="M13.6812 52.8895L12.2947 52.4083C12.2947 52.4083 12.464 45.2308 9.92703 44.7157C8.23631 42.7235 10.1982 -39.7701 16.286 44.4407C16.286 44.4407 14.1888 45.5051 13.8168 47.3257C13.4107 49.1117 13.6812 52.8895 13.6812 52.8895Z" fill="#898989"/>
<path fill-rule="evenodd" clip-rule="evenodd" d="M13.6812 52.8895L12.2947 52.4083C12.2947 52.4083 12.464 45.2308 9.92703 44.7157C8.23631 42.7235 10.1982 -39.7701 16.286 44.4407C16.286 44.4407 14.1888 45.5051 13.8168 47.3257C13.4107 49.1117 13.6812 52.8895 13.6812 52.8895Z" fill="#898989"/>
<path fill-rule="evenodd" clip-rule="evenodd" d="M14.4256 45.9521C14.4256 45.9521 26.5681 37.8467 23.7266 20.9837C20.9872 8.72349 14.5271 4.70525 13.8168 3.15966C13.0391 2.06066 12.2947 0.137695 12.2947 0.137695L12.8023 34.2405C12.8023 34.2751 11.7537 44.6811 14.4259 45.9524" fill="#898989"/>
<path fill-rule="evenodd" clip-rule="evenodd" d="M14.4256 45.9521C14.4256 45.9521 26.5681 37.8467 23.7266 20.9837C20.9872 8.72349 14.5271 4.70525 13.8168 3.15966C13.0391 2.06066 12.2947 0.137695 12.2947 0.137695L12.8023 34.2405C12.8023 34.2751 11.7537 44.6811 14.4259 45.9524" fill="#898989"/>
<path fill-rule="evenodd" clip-rule="evenodd" d="M11.5849 46.3983C11.5849 46.3983 0.186374 38.4991 0.862955 24.5903C1.50545 10.6811 9.55515 3.84667 11.111 2.61035C12.1259 1.51135 12.1596 1.099 12.2274 0C12.9377 1.54559 12.8024 23.1135 12.9036 25.6547C13.2078 35.4426 12.3626 44.5442 11.5849 46.3983Z" fill="#898989"/>
<path fill-rule="evenodd" clip-rule="evenodd" d="M11.5849 46.3983C11.5849 46.3983 0.186374 38.4991 0.862955 24.5903C1.50545 10.6811 9.55515 3.84667 11.111 2.61035C12.1259 1.51135 12.1596 1.099 12.2274 0C12.9377 1.54559 12.8024 23.1135 12.9036 25.6547C13.2078 35.4426 12.3626 44.5442 11.5849 46.3983Z" fill="#898989"/>
</svg>
