<svg width="160" height="43" viewBox="0 0 160 43" fill="none" xmlns="http://www.w3.org/2000/svg">
<path d="M136.09 39.5271C138.3 39.7332 140.508 39.9546 142.711 40.1836L147.575 28.6248L152.198 41.2498C154.57 41.5358 156.941 41.8361 159.305 42.1496L151.199 20.0108L159.307 0.740785H152.441L152.369 0.835445L147.989 11.2455L144.144 0.742311H137.364L144.363 19.8601L136.091 39.5271H136.09ZM130.963 39.0741V0.740785H124.185V38.5362C126.446 38.7041 128.707 38.8848 130.963 39.0741ZM80.0503 36.9305C81.88 36.9305 83.7075 36.9438 85.5318 36.958V22.875H93.6736V16.8778H85.5323V6.74509H94.9094V0.740785H78.7284V36.9356C79.1678 36.9356 79.6093 36.929 80.0503 36.9305ZM59.0075 37.2969C61.2655 37.2196 63.5256 37.1544 65.7888 37.1015V6.74611H72.1237V0.742311H52.6726V6.74611H59.0086V37.2969H59.0075ZM7.17314 41.3388V18.5008L15.1981 40.4167C17.666 40.15 20.1376 39.8991 22.616 39.6619V0.741294H16.1129V24.3977L7.4534 0.741294H0.671631V42.1597H0.712348C2.86083 41.8737 5.01672 41.602 7.17314 41.3388ZM46.1373 6.74459V0.741294H29.9546V39.013C35.3387 38.5657 40.7291 38.1906 46.124 37.8878V31.8789C42.9957 32.054 39.8737 32.2555 36.7591 32.48V22.8775H44.9009V16.8768H36.7591V6.74459H46.1373ZM108.341 31.5919V0.739258H101.534V37.3188C106.949 37.5102 112.343 37.7769 117.718 38.1128V32.1003C114.598 31.9064 111.473 31.7385 108.341 31.5919Z" fill="#898989"/>
</svg>
