<svg width="171" height="51" viewBox="0 0 171 51" fill="none" xmlns="http://www.w3.org/2000/svg">
<path d="M169.899 11.0176C170.308 10.5329 170.582 9.98017 170.582 9.28742C170.587 8.59979 170.344 7.93404 169.899 7.41581C169.42 6.92972 168.809 6.65234 168.124 6.65234C167.444 6.65234 166.899 6.93041 166.351 7.41581C165.875 7.90122 165.668 8.52463 165.668 9.28742C165.668 9.98017 165.875 10.5329 166.351 11.0176C166.899 11.503 167.444 11.7103 168.124 11.7103C168.809 11.7103 169.42 11.503 169.899 11.0176ZM170.038 36.5163V14.136H166.351L166.421 36.5163H170.038ZM161.506 15.2455L160.893 14.9675C159.255 13.9966 157.275 13.5126 154.889 13.5126C152.295 13.5126 150.18 14.1353 148.61 15.3828C147.792 16.0069 147.245 16.6297 146.836 17.4625C146.428 18.2239 146.221 18.986 146.221 19.8861C146.221 21.411 146.905 22.6578 148.134 23.7659C149.293 24.8061 150.998 25.6375 153.25 26.3296C155.16 26.953 156.457 27.5771 157.275 28.2012C157.959 28.8946 158.369 29.656 158.369 30.6255C158.369 31.665 157.822 32.4964 156.866 33.1898C155.91 33.7446 154.544 34.0906 152.84 34.0906C150.997 34.0906 149.156 33.6052 147.245 32.7031L146.767 32.3584L145.198 35.2674L145.746 35.5448C147.86 36.5843 150.181 37.0683 152.705 37.0683C155.435 37.0683 157.686 36.5142 159.46 35.2674C160.347 34.7127 160.962 33.9519 161.44 33.1905C161.915 32.2897 162.121 31.3182 162.121 30.3488V30.2774C162.121 28.6152 161.44 27.1597 160.143 25.9829C159.052 25.0141 157.277 24.1813 154.957 23.4892C153.182 22.8631 151.886 22.2403 151.135 21.7556C150.316 21.1308 149.976 20.4395 149.976 19.6774C149.976 18.7759 150.316 18.0845 151.069 17.4611C151.886 16.9057 152.976 16.5589 154.41 16.5589C156.39 16.5589 158.027 16.9057 159.324 17.7371L159.802 18.0838L161.506 15.2455ZM139.263 16.9077C136.738 14.6908 133.6 13.5133 129.981 13.5133C126.433 13.5133 123.5 14.6207 121.112 16.769C118.449 19.1954 117.086 22.5198 117.086 26.885V44.276H120.633V33.0518C121.725 34.298 123.092 35.2688 124.728 35.9629C126.366 36.7236 128.139 37.0697 130.051 37.0697C133.668 37.0697 136.738 35.9629 139.263 33.6045C141.856 31.3182 143.151 28.5479 143.151 25.2901C143.151 21.965 141.856 19.1947 139.263 16.9077ZM129.981 16.6297C132.644 16.6297 134.962 17.4625 136.736 19.124C138.58 20.7869 139.535 22.8644 139.535 25.3615C139.535 27.7151 138.715 29.6554 137.078 31.3182C135.305 33.0505 132.916 33.9519 130.051 33.9519C127.183 33.9519 124.862 33.0512 123.021 31.3182C121.316 29.5874 120.498 27.6471 120.498 25.3615C120.498 23.0732 121.317 21.0649 123.021 19.4007C124.796 17.6005 127.117 16.6297 129.981 16.6297ZM111.422 18.0172C109.035 14.9675 105.623 13.5126 101.05 13.5126C97.6382 13.5126 94.7024 14.4827 92.179 16.5603C89.4507 18.7086 88.0862 21.6197 88.0862 25.2221C88.0862 27.2311 88.6312 29.2407 89.7908 31.1109C90.8159 32.9118 92.3845 34.368 94.5002 35.4755C96.6145 36.5156 98.8661 36.9997 101.323 36.9997C103.643 36.9997 105.826 36.5156 107.943 35.4755C110.056 34.368 111.626 32.9118 112.649 31.1109L113.332 29.9327H109.375C108.555 31.1109 107.394 32.0817 105.895 32.8431C104.394 33.6045 102.757 33.9519 101.187 33.9519C99.0034 33.9519 97.1609 33.3958 95.5225 32.2877C93.8849 31.1102 92.7943 29.6554 92.1114 27.7151C94.3616 26.8143 96.6145 26.3289 99.0723 26.3289L102.757 26.7436L108.488 27.299C110.261 27.299 111.765 27.0217 113.127 26.607C113.674 26.3982 114.015 26.1209 114.153 25.7741C114.356 25.4975 114.356 25.0141 114.221 24.4573C113.81 21.965 112.923 19.8181 111.422 18.0172ZM110.468 23.7L110.536 23.8373L108.556 24.114L104.258 23.6993L98.2528 23.2125H97.2291C95.3183 23.3512 93.5448 23.6993 91.8382 24.3214C92.11 21.757 93.3399 19.7467 95.3873 18.2932C97.0919 17.183 99.004 16.5603 101.05 16.5603C104.256 16.5603 106.714 17.5998 108.556 19.6787C109.512 20.9269 110.193 22.2424 110.468 23.7ZM72.1859 13.5126C68.7057 13.5126 65.7036 14.62 63.3155 16.7683C60.6541 19.1947 59.3573 22.5191 59.3573 26.8837L59.2897 44.2746H62.9747L62.9057 33.0505C63.9977 34.2973 65.3622 35.2674 66.9322 35.9615C68.6374 36.723 70.4123 37.0676 72.3225 37.0676C75.9392 37.0676 79.0096 35.9615 81.535 33.6039C84.1274 31.3176 85.3553 28.5458 85.3553 25.2887C85.3553 21.963 84.1274 19.1926 81.6019 16.9057C79.0096 14.6901 75.9392 13.5126 72.1859 13.5126ZM65.2263 19.4014C67.0688 17.6005 69.321 16.6297 72.1859 16.6297C74.9162 16.6297 77.1678 17.4625 79.0082 19.124C80.8528 20.7869 81.7379 22.8644 81.7379 25.3615C81.7379 27.7151 80.9204 29.6554 79.349 31.3182C77.5768 33.0505 75.2563 33.9519 72.2542 33.9519C69.4563 33.9519 67.0688 33.0512 65.2256 31.3182C63.588 29.5874 62.7691 27.6471 62.7691 25.3615C62.7698 23.0738 63.588 21.0656 65.2263 19.4014Z" fill="#3E3A3A"/>
<path d="M39.5087 5.98802C39.2877 5.81811 39.0779 5.63361 38.8808 5.43572C34.7622 2.48584 29.8439 0.90571 24.8038 0.913112C11.2836 0.913112 0.323145 12.0474 0.323145 25.7824C0.31567 31.1346 2.01518 36.3453 5.16736 40.635C13.3595 38.1787 20.5068 33.9051 26.6321 27.7285C32.7498 21.5814 37.0487 14.306 39.5087 5.98802Z" fill="#898989"/>
<path d="M24.8035 50.6515C38.3227 50.6515 49.2831 39.5158 49.2831 25.7818C49.2831 20.92 47.909 16.3868 45.5358 12.557C45.4735 12.4938 45.4176 12.4245 45.3688 12.3501C45.867 14.0193 46.1192 15.754 46.1174 17.4982C46.1174 20.3202 45.4752 22.9912 44.2137 25.4921C42.9662 27.8671 41.2125 29.9296 39.0804 31.5291C37.3694 32.8106 35.3159 33.8968 32.8983 34.7873C30.9741 35.5023 28.4711 36.2417 25.3703 36.9572L16.429 39.0003C12.6278 39.8849 9.16578 40.8316 6.08167 41.801C10.5719 47.2141 17.2916 50.6515 24.8035 50.6515Z" fill="#898989"/>
</svg>
